<svg xmlns="http://www.w3.org/2000/svg" viewBox="0 0 293 293" width="293" height="293">
  <path fill="#2a2320" fill-rule="evenodd" d="M 189.00 251.42 C 176.76 249.13 156.44 247.75 145.02 248.42 C 138.52 248.80 134.44 248.70 135.02 248.17 C 136.14 247.14 153.03 242.46 159.00 241.52 C 170.53 239.71 186.31 233.55 192.25 228.56 C 193.92 227.15 195.53 226.00 195.82 226.00 C 197.20 226.00 200.50 237.64 200.50 242.49 C 200.50 248.23 198.90 253.09 197.09 252.87 C 196.49 252.79 192.85 252.14 189.00 251.42 Z M 92.50 249.02 C 92.50 246.80 97.64 234.68 103.78 222.44 C 110.14 209.75 120.24 192.07 131.83 173.35 C 134.95 168.31 137.50 163.64 137.50 162.95 C 137.50 162.27 136.00 159.86 134.17 157.60 C 128.98 151.20 123.08 142.11 119.50 135.00 C 109.24 114.65 109.27 102.07 119.66 83.60 C 125.82 72.64 144.18 43.06 146.05 41.10 C 147.17 39.91 149.31 42.64 159.78 58.60 C 174.52 81.06 179.75 90.43 182.05 98.45 C 186.99 115.68 177.85 137.66 150.34 174.77 C 144.86 182.16 140.51 188.34 140.69 188.50 C 141.69 189.42 159.25 176.33 166.11 169.53 C 174.53 161.19 177.38 157.29 183.66 145.50 L 187.38 138.50 L 190.16 144.50 C 192.15 148.81 193.05 152.54 193.33 157.76 C 193.85 167.47 191.02 173.39 181.68 182.15 C 174.86 188.55 170.25 191.45 143.20 206.35 C 129.19 214.07 119.62 220.52 119.54 222.31 C 119.52 222.75 119.93 222.85 120.45 222.53 C 120.97 222.21 129.41 219.73 139.20 217.03 C 148.99 214.33 159.58 211.22 162.73 210.12 C 170.95 207.25 183.56 200.49 188.37 196.38 L 192.50 192.84 L 192.50 196.87 C 192.50 204.30 190.54 210.59 186.91 214.84 C 182.48 220.01 171.87 225.36 161.75 227.51 C 130.75 234.12 116.62 238.55 102.67 246.06 C 95.32 250.02 92.50 250.84 92.50 249.02 Z M 108.23 183.75 C 99.82 169.20 99.25 153.44 106.70 141.22 L 108.70 137.94 L 112.17 143.72 C 114.08 146.90 118.08 152.74 121.06 156.70 L 126.48 163.90 L 119.24 175.95 C 115.26 182.58 111.71 188.00 111.35 188.00 C 110.99 188.00 109.58 186.09 108.23 183.75 Z M 152.50 121.50 L 152.50 113.00 L 159.50 113.00 L 166.50 113.00 L 166.50 108.00 L 166.50 103.00 L 159.50 103.00 L 152.50 103.00 L 152.50 95.45 L 152.50 87.89 L 147.75 88.20 L 143.00 88.50 L 142.71 95.75 L 142.41 103.00 L 135.46 103.00 L 128.50 103.00 L 128.50 108.00 L 128.50 113.00 L 135.50 113.00 L 142.50 113.00 L 142.50 121.50 L 142.50 130.00 L 147.50 130.00 L 152.50 130.00 L 152.50 121.50 Z"/>
</svg>
