<svg xmlns="http://www.w3.org/2000/svg" viewBox="0 0 293 293" width="293" height="293">
  <path fill="#2a2320" fill-rule="evenodd" d="M 138.95 278.19 C 136.45 277.49 132.77 275.90 130.77 274.67 C 127.06 272.37 121.00 266.11 121.00 264.57 C 121.00 263.43 123.57 262.50 126.71 262.50 C 128.12 262.50 133.27 261.12 138.16 259.44 L 147.06 256.39 L 153.61 259.01 C 157.22 260.45 162.82 262.10 166.08 262.67 L 171.99 263.71 L 170.24 266.70 C 164.84 275.98 150.19 281.36 138.95 278.19 Z M 121.00 255.48 C 114.06 254.24 109.77 251.01 106.49 244.54 C 105.03 241.66 104.85 239.64 105.42 232.54 C 105.80 227.84 106.20 222.69 106.30 221.08 C 106.48 218.45 105.60 217.57 97.00 211.83 C 86.31 204.69 80.22 198.61 75.63 190.52 L 72.50 185.00 L 72.17 189.00 C 71.75 194.17 73.68 203.96 76.04 208.59 C 77.06 210.58 81.26 215.89 85.38 220.37 C 90.68 226.15 93.48 230.16 94.97 234.14 C 96.12 237.23 96.86 239.97 96.61 240.22 C 96.03 240.80 85.12 233.42 80.29 229.19 C 78.29 227.44 75.40 224.27 73.87 222.16 L 71.08 218.32 L 70.43 220.91 C 69.50 224.65 68.35 224.13 65.65 218.75 C 60.40 208.27 59.95 197.75 64.01 180.69 C 65.02 176.46 65.69 172.86 65.51 172.67 C 65.32 172.49 64.26 172.82 63.15 173.42 C 59.47 175.39 59.05 174.68 60.67 169.25 C 64.09 157.73 72.46 144.23 86.14 128.21 C 90.74 122.82 96.25 116.30 98.38 113.71 C 101.81 109.54 103.14 108.75 109.88 106.80 C 122.68 103.10 130.82 102.09 147.50 102.10 C 163.91 102.12 170.15 102.93 182.68 106.63 L 189.86 108.75 L 202.61 123.18 C 209.62 131.11 217.35 140.39 219.79 143.80 C 225.07 151.16 232.56 166.44 233.55 171.84 L 234.26 175.68 L 231.18 174.09 C 229.48 173.22 227.93 172.50 227.71 172.50 C 227.50 172.50 228.13 175.73 229.11 179.68 C 231.65 189.90 232.45 201.17 231.09 207.60 C 229.86 213.44 225.38 223.50 224.01 223.50 C 223.55 223.50 222.77 222.30 222.27 220.82 L 221.38 218.15 L 219.17 221.73 C 217.95 223.70 215.24 226.86 213.13 228.76 C 208.15 233.27 196.99 240.83 196.32 240.16 C 195.47 239.30 198.02 232.30 200.69 228.14 C 202.06 226.02 205.84 221.67 209.10 218.48 C 216.70 211.05 220.01 203.87 220.75 193.25 C 221.04 188.99 221.03 185.50 220.71 185.50 C 220.40 185.50 219.14 187.49 217.93 189.93 C 214.25 197.29 207.37 204.17 196.66 211.17 C 191.07 214.82 186.33 217.95 186.12 218.12 C 185.91 218.29 186.30 222.61 186.99 227.71 C 187.96 234.88 187.98 237.97 187.08 241.26 C 185.78 246.04 181.14 251.86 176.90 254.05 C 172.87 256.14 164.33 255.83 159.00 253.42 C 152.34 250.40 150.00 247.81 150.00 243.47 C 150.00 240.17 150.61 239.32 156.01 235.07 C 161.34 230.89 166.34 224.50 164.30 224.50 C 163.88 224.50 160.04 225.25 155.75 226.18 C 149.17 227.59 146.83 227.67 140.73 226.69 C 136.75 226.05 132.49 225.24 131.25 224.90 C 126.95 223.69 128.86 227.24 135.99 233.68 C 142.15 239.25 142.98 240.42 142.99 243.58 C 143.00 246.02 142.29 247.80 140.75 249.21 C 135.72 253.81 127.06 256.56 121.00 255.48 Z M 123.50 191.43 C 125.00 181.05 125.02 179.49 123.67 176.26 C 122.84 174.28 121.09 171.95 119.77 171.08 C 117.41 169.54 96.92 164.42 96.06 165.16 C 95.83 165.37 97.24 167.22 99.21 169.27 C 101.17 171.32 103.11 174.12 103.51 175.50 C 104.64 179.41 107.75 182.17 112.54 183.51 C 114.99 184.20 117.14 185.46 117.39 186.37 C 117.63 187.27 118.58 191.52 119.50 195.83 C 120.42 200.14 121.32 203.51 121.50 203.33 C 121.68 203.15 122.58 197.79 123.50 191.43 Z M 173.39 199.25 C 173.75 196.91 174.54 192.68 175.16 189.84 C 176.23 184.91 176.47 184.63 180.57 183.48 C 185.26 182.17 188.37 179.38 189.49 175.50 C 189.89 174.12 192.06 171.09 194.32 168.75 C 196.57 166.41 197.84 164.50 197.14 164.50 C 194.25 164.50 175.33 169.75 173.17 171.14 C 171.88 171.98 170.15 174.28 169.32 176.27 C 167.96 179.54 167.99 181.03 169.61 191.69 C 170.60 198.19 171.71 203.50 172.08 203.50 C 172.44 203.50 173.04 201.59 173.39 199.25 Z M 97.47 191.60 C 89.31 179.14 87.95 175.86 87.27 166.94 C 86.75 160.01 87.28 157.27 91.63 144.50 C 91.91 143.68 90.33 145.03 88.13 147.50 C 78.44 158.36 75.51 170.88 80.34 180.75 C 83.45 187.11 89.47 193.16 97.44 197.94 C 100.71 199.90 103.51 201.50 103.67 201.50 C 103.83 201.50 101.04 197.04 97.47 191.60 Z M 197.59 196.67 C 208.93 189.32 215.29 179.69 215.29 169.89 C 215.29 163.40 210.99 153.87 205.20 147.50 L 201.11 143.00 L 203.63 150.50 C 208.51 165.02 206.75 175.07 196.67 190.10 C 189.81 200.34 189.72 200.50 190.79 200.50 C 191.28 200.50 194.35 198.78 197.59 196.67 Z M 150.01 159.75 L 152.68 148.00 L 157.37 147.69 C 159.94 147.53 165.79 148.09 170.35 148.94 C 174.92 149.80 179.01 150.50 179.44 150.50 C 179.87 150.50 178.03 148.69 175.36 146.48 C 170.53 142.48 162.45 138.80 156.25 137.78 C 153.01 137.24 153.00 137.21 153.00 131.37 L 153.00 125.50 L 157.75 125.52 C 163.52 125.54 173.56 127.60 181.00 130.28 C 184.03 131.38 187.40 132.58 188.50 132.96 C 192.74 134.42 179.50 123.53 173.36 120.51 C 157.61 112.75 134.86 112.97 118.94 121.03 C 113.96 123.56 104.00 131.08 104.00 132.32 C 104.00 132.75 108.49 131.60 113.97 129.77 C 120.17 127.70 126.97 126.21 131.97 125.82 L 140.00 125.20 L 140.17 129.35 C 140.26 131.63 140.37 134.24 140.42 135.14 C 140.48 136.30 138.95 137.17 135.11 138.15 C 128.47 139.85 118.96 144.82 115.84 148.23 L 113.50 150.78 L 116.50 150.05 C 127.62 147.35 141.01 146.64 140.98 148.75 C 140.95 151.12 146.33 172.51 146.83 172.00 C 147.11 171.72 148.54 166.21 150.01 159.75 Z M 73.30 125.26 C 67.43 118.87 63.00 105.16 63.00 93.40 C 63.00 83.62 66.38 76.30 72.30 73.22 L 76.11 71.25 L 83.30 74.83 C 92.09 79.21 99.79 85.44 105.05 92.44 C 107.22 95.33 109.00 98.02 109.00 98.40 C 109.00 98.79 106.97 100.09 104.48 101.30 L 99.96 103.49 L 92.69 96.25 C 88.70 92.26 83.08 87.73 80.21 86.18 C 75.34 83.56 74.94 83.49 74.24 85.18 C 73.83 86.18 73.52 90.38 73.54 94.50 C 73.60 103.45 75.92 108.44 82.10 112.85 L 86.09 115.70 L 81.38 120.85 C 78.79 123.68 76.38 126.34 76.02 126.76 C 75.66 127.18 74.44 126.51 73.30 125.26 Z M 212.64 121.48 L 206.88 115.25 L 209.69 113.51 C 216.27 109.43 220.01 102.21 219.99 93.62 C 219.97 87.33 219.08 84.50 217.12 84.50 C 214.45 84.50 204.93 91.43 198.89 97.78 L 193.27 103.68 L 188.89 101.47 C 186.47 100.25 184.31 99.08 184.08 98.88 C 183.01 97.91 191.70 87.24 196.86 83.19 C 204.21 77.42 213.86 72.50 217.84 72.50 C 221.84 72.50 227.13 77.67 228.79 83.19 C 232.32 94.97 228.16 115.67 220.31 125.37 L 218.41 127.71 L 212.64 121.48 Z M 117.30 95.32 C 116.71 94.59 114.57 90.68 112.54 86.63 L 108.85 79.25 L 112.17 75.81 C 114.00 73.92 121.24 67.35 128.25 61.21 L 141.00 50.05 L 141.00 44.66 L 141.00 39.26 L 135.00 39.69 L 129.00 40.13 L 129.00 33.17 L 129.00 26.22 L 135.00 26.84 L 141.00 27.47 L 141.00 20.48 L 141.00 13.50 L 147.50 13.50 L 154.00 13.50 L 154.00 20.55 L 154.00 27.60 L 160.00 26.92 L 166.00 26.24 L 166.00 33.33 L 166.00 40.42 L 159.50 39.82 L 153.00 39.21 L 153.02 44.11 C 153.02 46.80 153.36 49.48 153.77 50.07 C 154.17 50.66 161.03 57.15 169.00 64.48 C 176.97 71.82 183.61 78.31 183.74 78.91 C 183.88 79.51 182.04 83.60 179.66 88.00 C 176.37 94.09 174.88 95.95 173.42 95.77 C 155.94 93.70 145.46 93.32 134.50 94.39 C 127.90 95.03 121.57 95.80 120.43 96.10 C 119.29 96.39 117.88 96.05 117.30 95.32 Z M 153.49 85.17 L 159.27 78.33 L 153.38 72.19 C 150.15 68.81 147.34 65.81 147.14 65.52 C 146.76 64.97 135.00 77.55 135.00 78.51 C 135.00 79.57 146.34 92.55 147.03 92.28 C 147.41 92.12 150.32 88.92 153.49 85.17 Z"/>
</svg>
