<svg xmlns="http://www.w3.org/2000/svg" viewBox="0 0 293 293" width="293" height="293">
  <path fill="#2a2320" fill-rule="evenodd" d="M 84.53 237.25 C 84.61 235.36 86.54 221.23 87.03 218.91 L 87.59 216.31 L 106.30 215.67 C 131.05 214.83 158.45 211.23 164.34 208.04 C 165.08 207.64 159.46 207.03 151.84 206.69 C 136.98 206.02 119.48 203.44 105.00 199.78 C 96.60 197.65 96.01 197.33 96.11 195.00 C 96.20 193.08 100.50 170.20 100.94 169.32 C 100.99 169.21 106.43 168.43 113.02 167.58 C 128.36 165.59 149.36 160.86 146.85 159.96 C 145.83 159.59 141.42 159.00 137.05 158.64 C 128.57 157.95 113.47 155.55 107.20 153.90 L 103.40 152.90 L 104.04 138.20 C 104.62 124.88 104.48 122.95 102.59 117.59 C 101.44 114.34 100.50 111.31 100.50 110.84 C 100.50 110.38 121.23 110.00 146.57 110.00 C 189.96 110.00 192.61 110.10 192.15 111.75 C 191.88 112.71 190.94 116.06 190.07 119.19 C 189.06 122.78 187.84 125.06 186.74 125.39 C 180.11 127.37 153.17 129.76 122.50 131.09 C 118.42 131.27 133.81 135.77 147.99 138.55 C 155.13 139.95 166.83 141.57 173.99 142.16 C 181.15 142.75 187.49 143.36 188.10 143.52 C 188.71 143.69 189.50 147.46 189.88 151.99 C 190.25 156.48 190.82 162.09 191.15 164.45 L 191.74 168.74 L 184.59 171.46 C 172.16 176.22 151.40 181.16 135.64 183.13 C 123.88 184.60 124.53 185.22 139.71 187.01 C 149.99 188.23 182.60 187.85 191.50 186.41 L 195.00 185.85 L 197.86 196.67 C 202.51 214.26 202.98 212.26 193.35 215.96 C 184.64 219.31 159.87 225.94 155.52 226.09 C 153.04 226.17 153.04 226.19 155.83 227.02 C 159.69 228.18 185.13 230.00 197.44 230.00 C 207.41 230.00 207.50 230.02 207.50 232.42 C 207.50 233.75 207.77 235.55 208.11 236.42 C 208.66 237.85 202.83 238.00 146.61 238.00 C 112.45 238.00 84.51 237.66 84.53 237.25 Z M 90.75 98.75 L 87.50 97.71 L 87.50 76.36 L 87.50 55.00 L 99.50 55.00 L 111.50 55.00 L 111.50 64.50 L 111.50 74.00 L 123.00 74.00 L 134.50 74.00 L 134.50 65.02 C 134.50 54.34 133.87 54.77 149.00 55.21 L 159.00 55.50 L 159.29 64.75 L 159.58 74.00 L 170.50 74.00 L 181.42 74.00 L 181.71 64.75 L 182.00 55.50 L 193.75 55.22 L 205.50 54.94 L 205.50 75.95 L 205.50 96.97 L 201.88 98.49 C 198.79 99.78 190.57 99.98 146.13 99.90 C 112.99 99.83 92.82 99.42 90.75 98.75 Z"/>
</svg>
