<svg xmlns="http://www.w3.org/2000/svg" viewBox="0 0 293 293" width="293" height="293">
  <path fill="#e9a33d" fill-rule="evenodd" d="M 107.92 240.75 C 108.79 237.04 114.68 225.05 118.39 219.46 C 120.05 216.97 125.49 210.22 130.47 204.46 C 140.99 192.31 144.50 186.08 144.50 179.55 C 144.49 169.46 138.20 165.00 124.00 165.00 C 113.48 165.00 108.00 167.09 98.03 174.90 C 85.30 184.86 72.77 184.55 65.85 174.10 L 63.24 170.15 L 66.37 163.81 C 68.09 160.32 69.50 157.25 69.50 156.98 C 69.50 156.72 65.90 156.50 61.50 156.50 C 54.42 156.50 53.50 156.29 53.50 154.67 C 53.50 151.42 65.41 132.84 72.18 125.53 C 78.16 119.06 78.89 117.81 80.15 111.71 C 80.92 108.02 82.73 102.53 84.19 99.50 C 87.92 91.73 99.14 80.92 108.00 76.55 C 111.85 74.65 115.08 73.07 115.18 73.03 C 115.28 73.00 114.72 68.70 113.94 63.49 C 111.86 49.66 111.88 49.50 115.75 49.50 C 119.86 49.50 130.06 54.30 137.99 59.96 C 147.90 67.03 154.22 74.93 157.97 84.96 C 159.51 89.08 159.96 89.59 160.59 87.96 C 161.66 85.23 161.63 77.76 160.53 73.03 C 160.02 70.84 159.79 68.88 160.00 68.67 C 160.72 67.95 170.91 70.78 177.71 73.59 C 191.56 79.30 206.74 91.33 216.73 104.50 C 221.31 110.55 229.56 126.00 231.04 131.32 C 231.67 133.62 231.65 133.63 228.60 132.05 C 220.33 127.78 220.23 127.93 225.57 136.80 C 234.06 150.91 238.28 164.25 239.22 180.00 L 239.82 190.00 L 235.36 186.35 L 230.90 182.69 L 230.90 200.35 C 230.91 217.34 229.65 228.52 226.47 239.75 L 225.41 243.50 L 203.37 243.50 C 186.19 243.50 181.42 243.22 181.74 242.25 C 181.96 241.56 187.28 237.54 193.55 233.31 C 206.91 224.31 212.34 217.99 215.48 207.84 C 216.59 204.24 217.50 200.69 217.50 199.95 C 217.50 199.22 215.14 201.12 212.25 204.18 C 205.43 211.41 198.63 215.96 184.48 222.75 C 173.97 227.80 159.02 237.68 155.63 241.82 C 154.41 243.31 151.53 243.50 130.77 243.50 L 107.28 243.50 L 107.92 240.75 Z M 148.84 220.14 C 152.50 217.74 158.98 214.30 163.24 212.49 C 167.51 210.68 175.10 207.45 180.11 205.31 C 191.26 200.53 199.64 193.98 205.23 185.67 C 210.20 178.28 212.41 171.65 213.12 162.00 L 213.63 155.00 L 210.55 160.50 C 203.24 173.57 193.05 183.51 178.12 192.17 C 159.73 202.83 149.91 210.86 144.50 219.65 C 142.86 222.32 141.67 224.50 141.86 224.50 C 142.05 224.50 145.19 222.54 148.84 220.14 Z M 84.98 201.35 C 81.44 198.24 79.41 195.13 78.06 190.75 C 77.40 188.61 77.63 188.50 82.68 188.48 C 88.30 188.45 92.84 187.54 98.34 185.34 C 101.45 184.09 101.80 184.16 103.59 186.36 C 106.84 190.37 106.10 194.05 101.35 197.49 C 99.07 199.15 96.59 200.50 95.84 200.50 C 95.09 200.50 93.71 201.40 92.77 202.50 C 90.44 205.22 89.17 205.03 84.98 201.35 Z M 179.71 170.84 C 194.72 159.29 202.48 140.73 199.60 123.25 C 197.66 111.46 190.86 99.06 183.07 93.12 L 179.62 90.49 L 182.58 97.02 C 193.03 120.06 189.07 143.15 170.26 168.74 C 167.33 172.73 163.83 177.56 162.49 179.46 L 160.06 182.92 L 166.96 179.13 C 170.76 177.05 176.49 173.32 179.71 170.84 Z M 151.14 160.96 C 156.19 158.92 162.09 152.89 164.50 147.29 C 167.57 140.15 167.01 129.31 163.18 121.82 C 159.66 114.92 158.71 114.59 159.27 120.44 C 160.38 132.01 155.21 146.64 146.03 157.91 L 141.52 163.45 L 144.76 162.84 C 146.54 162.50 149.41 161.66 151.14 160.96 Z M 126.76 151.60 C 133.06 148.90 138.09 144.13 140.05 139.01 C 141.95 134.03 141.70 123.12 139.56 118.00 C 138.32 115.00 138.31 115.01 136.48 122.15 C 133.82 132.51 131.80 136.01 119.05 152.32 L 117.10 154.82 L 119.71 154.16 C 121.14 153.80 124.31 152.65 126.76 151.60 Z M 103.30 119.53 C 107.61 118.39 111.49 114.09 111.50 110.45 C 111.50 109.60 113.30 107.15 115.50 105.00 C 117.70 102.85 119.50 100.77 119.50 100.38 C 119.50 98.52 100.24 105.08 97.73 107.78 C 95.90 109.77 90.50 121.61 90.50 123.66 C 90.50 124.11 92.41 123.62 94.75 122.57 C 97.09 121.53 100.93 120.16 103.30 119.53 Z M 139.92 79.65 C 138.27 75.32 125.86 61.50 123.63 61.50 C 122.54 61.50 128.83 82.23 130.39 83.79 C 130.96 84.36 133.59 86.09 136.22 87.64 L 141.00 90.44 L 141.33 87.31 C 141.50 85.59 140.87 82.14 139.92 79.65 Z"/>
</svg>
