<svg xmlns="http://www.w3.org/2000/svg" viewBox="0 0 293 293" width="293" height="293">
  <path fill="#e9a33d" fill-rule="evenodd" d="M 96.47 226.93 C 90.40 224.01 85.81 214.82 85.81 205.60 C 85.81 195.20 88.67 190.81 100.77 182.59 C 111.54 175.27 114.91 171.09 120.86 157.65 C 127.55 142.52 135.29 136.09 146.82 136.11 C 157.77 136.12 168.65 145.77 173.63 159.92 C 177.23 170.10 181.62 175.33 191.75 181.49 C 196.78 184.56 202.30 189.44 204.00 192.34 C 209.88 202.33 206.70 219.15 197.84 224.96 C 191.41 229.17 184.04 229.37 169.76 225.72 C 152.65 221.35 140.29 221.30 124.20 225.55 C 110.30 229.22 102.06 229.63 96.47 226.93 Z M 75.76 169.76 C 67.22 164.55 63.42 155.17 63.42 139.30 C 63.42 128.56 64.13 124.35 66.80 119.28 C 72.86 107.77 81.70 101.15 81.70 108.13 C 81.70 109.36 84.48 112.94 87.87 116.08 C 101.16 128.38 106.83 146.10 101.73 159.44 C 97.04 171.73 86.12 176.07 75.76 169.76 Z M 198.41 168.57 C 192.24 163.39 188.90 156.02 188.90 147.61 C 188.90 139.31 196.85 123.74 204.89 116.30 C 208.42 113.04 211.30 109.27 211.30 107.92 C 211.30 103.60 216.55 106.25 221.90 113.27 C 228.85 122.38 231.43 134.92 229.17 148.57 C 227.22 160.37 224.38 165.40 217.21 169.77 C 210.19 174.05 204.48 173.69 198.41 168.57 Z M 115.36 129.26 C 104.96 124.00 97.93 101.15 102.47 87.40 C 104.72 80.56 112.37 71.26 119.10 67.17 L 123.70 64.37 L 129.82 70.25 C 137.97 78.08 140.90 85.65 140.89 98.85 C 140.88 112.87 138.50 121.14 132.87 126.77 C 127.92 131.72 121.91 132.57 115.36 129.26 Z M 161.88 128.69 C 155.60 124.29 152.17 114.36 152.14 100.45 C 152.09 85.52 154.71 78.39 163.24 70.19 L 169.42 64.25 L 175.56 68.74 C 183.67 74.67 186.67 78.21 189.64 85.31 C 197.30 103.64 185.87 131.30 170.64 131.30 C 167.87 131.30 163.93 130.12 161.88 128.69 Z"/>
</svg>
