<svg xmlns="http://www.w3.org/2000/svg" viewBox="0 0 293 293" width="293" height="293">
  <path fill="#e9a33d" fill-rule="evenodd" d="M 143.00 270.33 C 137.93 269.21 135.32 267.44 132.52 263.22 C 130.86 260.71 129.50 258.40 129.51 258.08 C 129.51 257.76 133.92 256.45 139.30 255.16 L 149.08 252.82 L 158.54 255.11 C 163.74 256.37 168.15 257.49 168.32 257.61 C 169.06 258.08 165.48 263.69 162.84 266.19 C 158.89 269.94 149.82 271.83 143.00 270.33 Z M 124.16 250.55 C 118.99 248.70 115.89 245.60 113.85 240.24 C 112.33 236.27 112.28 234.82 113.42 226.82 C 114.11 221.89 114.53 217.75 114.34 217.62 C 114.15 217.49 110.75 215.48 106.78 213.16 C 97.75 207.89 94.56 203.89 92.49 195.25 C 91.56 191.37 91.97 191.28 96.52 194.35 C 98.43 195.64 102.66 197.69 105.91 198.90 L 111.83 201.10 L 109.17 197.80 C 96.02 181.47 93.47 175.73 95.31 166.61 C 95.88 163.80 96.65 160.60 97.01 159.50 L 97.66 157.50 L 96.01 159.50 C 88.98 167.98 86.53 176.51 86.51 192.57 C 86.50 208.82 87.90 213.33 95.50 221.50 C 100.91 227.31 104.84 234.99 103.23 236.60 C 102.17 237.67 90.50 230.76 86.30 226.59 C 81.74 222.05 77.52 213.97 77.51 209.75 C 77.50 206.45 76.84 206.33 73.88 209.11 L 71.63 211.22 L 71.00 207.86 C 70.11 203.05 72.13 191.86 75.44 183.33 C 78.40 175.72 78.32 175.36 74.07 176.98 C 70.33 178.40 70.70 176.95 76.99 165.56 L 82.48 155.62 L 79.02 150.56 C 70.41 137.98 69.38 122.62 76.63 114.86 C 79.34 111.96 79.91 111.77 84.45 112.31 C 90.13 112.98 97.12 116.30 103.49 121.37 L 107.99 124.94 L 110.24 121.22 C 111.48 119.17 112.61 117.15 112.75 116.72 C 113.28 115.16 132.31 111.97 144.50 111.39 C 161.66 110.58 187.46 114.71 187.52 118.29 C 187.53 118.95 188.38 120.59 189.41 121.92 L 191.27 124.34 L 196.13 120.80 C 203.26 115.60 209.00 112.97 214.60 112.30 C 218.91 111.79 219.91 112.03 222.16 114.11 C 225.85 117.51 227.50 122.04 227.50 128.79 C 227.50 136.49 225.29 143.63 220.88 150.17 L 217.29 155.50 L 220.08 160.48 C 224.03 167.52 228.47 176.37 228.49 177.23 C 228.49 177.62 227.35 177.51 225.93 176.98 C 221.79 175.40 221.38 175.79 223.07 179.75 C 227.39 189.90 229.13 198.66 228.67 207.94 L 228.50 211.37 L 225.50 208.50 L 222.50 205.63 L 222.50 208.65 C 222.50 212.71 217.36 222.78 213.29 226.69 C 211.48 228.43 206.46 231.75 202.14 234.07 L 194.28 238.29 L 194.99 234.90 C 196.24 229.00 198.34 225.63 203.63 221.08 C 210.74 214.97 212.64 210.21 213.26 196.99 C 214.05 180.46 211.17 168.60 204.34 160.14 L 202.21 157.50 L 202.89 160.00 C 204.34 165.31 204.67 172.67 203.64 176.50 C 202.32 181.37 197.48 189.24 191.69 195.94 L 187.38 200.92 L 192.19 199.30 C 194.84 198.41 199.36 196.19 202.25 194.36 C 207.36 191.12 207.50 191.09 207.49 193.26 C 207.47 196.92 203.02 205.38 199.59 208.27 C 197.83 209.75 193.51 212.58 189.98 214.55 C 183.76 218.03 183.60 218.22 184.29 221.31 C 184.68 223.07 185.00 228.18 185.00 232.68 C 185.00 241.77 183.72 244.53 177.51 248.75 C 173.26 251.64 165.71 251.73 159.60 248.96 C 150.25 244.72 150.10 240.65 159.00 232.22 C 165.22 226.33 167.60 221.98 163.80 223.44 C 162.87 223.79 158.93 224.58 155.05 225.18 C 149.40 226.05 146.57 225.97 140.75 224.76 C 133.88 223.34 133.50 223.35 133.50 225.06 C 133.50 226.05 136.22 229.23 139.55 232.12 C 145.29 237.11 145.58 237.59 145.30 241.44 C 145.02 245.28 144.70 245.65 139.50 248.18 C 132.28 251.69 128.82 252.23 124.16 250.55 Z M 131.07 186.91 C 131.80 180.62 130.15 176.13 126.15 173.50 C 123.31 171.65 108.15 167.72 105.75 168.21 C 104.29 168.51 104.52 169.06 107.14 171.54 C 108.86 173.17 110.60 175.62 111.00 177.00 C 112.15 180.95 115.56 183.99 120.12 185.14 L 124.33 186.19 L 125.46 192.85 C 127.29 203.63 127.71 204.22 129.15 198.00 C 129.85 194.97 130.72 189.99 131.07 186.91 Z M 173.32 195.40 C 173.97 191.22 174.75 187.41 175.04 186.93 C 175.34 186.45 177.39 185.51 179.60 184.85 C 183.85 183.58 188.50 179.01 188.50 176.11 C 188.50 175.16 189.85 173.38 191.50 172.16 C 194.81 169.71 195.38 168.00 192.87 168.00 C 191.98 168.00 187.29 168.93 182.44 170.07 C 172.80 172.33 169.12 174.89 167.97 180.13 C 167.28 183.26 170.31 203.00 171.47 203.00 C 171.84 203.00 172.67 199.58 173.32 195.40 Z M 150.50 168.37 C 150.50 167.47 151.49 163.14 152.69 158.73 L 154.89 150.73 L 163.44 151.29 C 168.15 151.60 172.90 152.19 174.00 152.60 C 175.93 153.31 175.94 153.27 174.24 151.32 C 171.96 148.72 163.09 144.39 158.15 143.46 C 154.51 142.78 154.33 142.58 154.90 139.75 C 155.23 138.10 155.50 135.84 155.50 134.73 C 155.50 132.81 155.94 132.73 163.91 133.30 C 168.56 133.62 175.48 134.95 179.41 136.27 C 183.31 137.58 186.50 138.33 186.50 137.94 C 186.50 136.64 178.64 130.11 174.58 128.04 C 167.97 124.67 159.66 123.00 149.54 123.01 C 134.50 123.03 124.23 126.62 116.40 134.60 L 112.17 138.91 L 119.58 136.40 C 123.76 134.98 130.54 133.63 135.12 133.30 L 143.23 132.72 L 143.94 137.45 C 144.33 140.05 144.50 142.28 144.33 142.39 C 144.15 142.51 141.49 143.37 138.43 144.30 C 133.27 145.86 122.92 151.76 123.79 152.63 C 124.00 152.84 126.56 152.56 129.47 152.00 C 132.39 151.45 136.92 151.00 139.54 151.00 L 144.31 151.00 L 146.60 160.50 C 147.86 165.72 149.26 170.00 149.70 170.00 C 150.14 170.00 150.50 169.27 150.50 168.37 Z M 98.46 135.38 C 98.52 133.68 90.45 126.63 86.66 125.06 C 83.80 123.88 83.19 123.89 82.42 125.09 C 80.35 128.37 82.79 139.55 86.65 144.47 L 88.81 147.21 L 93.61 141.86 C 96.25 138.91 98.43 135.99 98.46 135.38 Z M 215.51 139.76 C 217.65 134.79 218.48 126.39 217.06 124.10 C 216.61 123.37 215.10 123.68 212.40 125.05 C 208.39 127.10 200.50 133.64 200.50 134.92 C 200.50 135.29 202.80 138.18 205.61 141.33 C 211.46 147.90 212.05 147.80 215.51 139.76 Z M 93.78 107.16 L 86.56 104.51 L 81.47 93.65 C 78.67 87.68 76.57 82.60 76.81 82.36 C 77.04 82.12 82.98 84.65 90.01 87.96 C 97.03 91.28 102.94 94.00 103.14 94.00 C 103.34 94.00 103.50 85.17 103.50 74.38 L 103.50 54.75 L 114.15 68.13 C 127.91 85.41 130.30 88.13 130.90 87.16 C 131.17 86.72 134.09 78.74 137.38 69.43 C 140.68 60.12 144.04 50.93 144.84 49.01 L 146.32 45.53 L 148.72 51.01 C 150.04 54.03 153.76 63.02 156.99 71.00 C 160.21 78.97 163.11 85.82 163.44 86.22 C 163.77 86.61 169.43 79.77 176.02 71.01 C 182.61 62.26 188.34 55.07 188.75 55.05 C 189.16 55.02 189.50 63.77 189.50 74.50 C 189.50 85.22 189.75 94.00 190.06 94.00 C 190.37 94.00 196.45 91.30 203.58 88.00 C 210.71 84.70 216.79 82.00 217.09 82.00 C 217.98 82.00 216.51 85.91 211.76 96.18 C 207.36 105.68 207.18 105.90 202.14 107.92 C 197.00 109.98 196.99 109.98 190.79 108.03 C 177.76 103.93 167.69 102.61 149.50 102.58 C 131.86 102.56 122.29 103.75 108.50 107.70 C 105.47 108.56 102.55 109.39 102.00 109.54 C 101.45 109.69 97.75 108.62 93.78 107.16 Z M 59.53 72.03 C 55.25 67.75 56.17 61.26 61.45 58.53 C 69.67 54.27 77.58 65.01 71.05 71.55 C 67.95 74.64 62.37 74.87 59.53 72.03 Z M 222.00 70.82 C 219.89 68.31 219.45 66.99 219.94 64.57 C 220.72 60.67 223.17 58.22 227.07 57.44 C 231.54 56.54 236.50 60.86 236.50 65.63 C 236.50 73.61 227.16 76.95 222.00 70.82 Z M 93.58 47.25 C 92.40 46.29 91.17 43.83 90.85 41.80 C 90.33 38.59 90.67 37.68 93.30 35.05 C 97.22 31.13 100.74 31.09 104.58 34.92 C 108.20 38.55 108.30 41.89 104.91 45.92 C 101.89 49.51 97.05 50.08 93.58 47.25 Z M 188.26 47.02 C 181.60 41.79 186.79 30.35 194.90 32.39 C 201.36 34.01 203.67 41.92 199.05 46.55 C 196.04 49.55 191.71 49.74 188.26 47.02 Z M 140.42 36.08 C 133.48 29.14 140.63 19.04 149.96 22.62 C 152.51 23.60 154.71 28.76 153.99 32.06 C 153.22 35.56 149.16 39.00 145.79 39.00 C 144.42 39.00 142.06 37.71 140.42 36.08 Z"/>
</svg>
