<svg xmlns="http://www.w3.org/2000/svg" viewBox="0 0 388 388" width="388" height="388">
  <path fill="#101a0c" fill-rule="evenodd" d="M 141.00 318.87 C 133.30 318.40 126.33 317.75 125.50 317.42 C 124.56 317.05 126.28 315.99 130.11 314.59 C 138.57 311.49 145.06 307.51 151.35 301.58 C 157.33 295.92 160.41 291.15 164.02 281.94 C 166.68 275.15 172.50 253.04 172.50 249.72 C 172.50 248.60 170.22 252.34 167.43 258.04 C 158.22 276.87 147.81 290.97 135.19 301.71 C 129.57 306.49 117.09 314.00 114.76 314.00 C 114.24 314.00 115.79 309.02 118.20 302.93 C 122.73 291.49 127.75 272.32 131.62 251.63 C 133.67 240.64 133.71 239.70 132.17 238.83 C 129.53 237.36 130.16 233.63 133.45 231.19 C 135.07 230.00 139.84 224.69 144.05 219.40 L 151.70 209.79 L 148.64 203.15 C 146.96 199.49 144.90 193.57 144.06 190.00 C 142.04 181.44 142.04 162.13 144.05 152.41 C 147.68 134.82 157.49 112.51 168.77 96.20 C 175.06 87.10 187.29 73.00 191.47 70.02 L 194.57 67.81 L 197.98 70.42 C 202.39 73.78 214.11 87.56 221.08 97.57 C 245.37 132.46 253.11 174.50 240.46 202.79 L 237.35 209.73 L 242.34 217.11 C 252.67 232.44 254.49 236.77 257.11 252.27 C 261.10 275.83 265.91 293.46 272.39 308.33 C 273.55 310.99 274.50 313.36 274.50 313.60 C 274.50 314.66 266.39 310.53 260.17 306.31 C 245.13 296.11 232.72 280.73 221.99 259.00 C 216.97 248.82 216.39 248.02 216.98 252.00 C 218.46 261.93 223.74 279.96 227.45 287.71 C 229.74 292.52 233.16 297.71 235.69 300.24 C 240.99 305.54 250.93 311.68 258.97 314.61 C 264.13 316.49 264.64 316.89 262.50 317.35 C 257.70 318.39 250.89 318.93 234.36 319.59 C 218.64 320.22 217.68 320.15 217.14 318.38 C 215.52 313.08 207.36 266.97 203.99 244.16 L 202.47 233.81 L 211.00 225.42 C 226.31 210.35 233.18 197.09 234.23 180.61 L 234.79 171.72 L 231.55 174.11 C 225.66 178.45 211.52 195.18 203.19 207.66 C 198.69 214.41 194.78 219.94 194.50 219.95 C 194.22 219.96 190.85 215.15 187.00 209.26 C 178.73 196.60 168.00 183.42 160.43 176.62 L 155.00 171.73 L 154.70 177.97 C 154.53 181.39 154.89 186.55 155.48 189.41 C 157.96 201.33 167.98 217.00 179.85 227.48 C 186.01 232.92 186.31 233.40 185.82 236.86 C 183.73 251.49 175.28 300.66 172.42 314.75 L 171.36 320.00 L 163.18 319.85 C 158.68 319.77 148.70 319.33 141.00 318.87 Z M 200.15 177.00 C 200.23 175.62 200.35 169.91 200.40 164.29 L 200.50 154.08 L 208.25 153.79 L 216.00 153.50 L 216.30 147.79 L 216.60 142.09 L 208.80 141.79 L 201.00 141.50 L 200.37 131.00 C 200.03 125.22 199.69 120.16 199.62 119.75 C 199.40 118.41 189.51 118.89 189.40 120.25 C 189.35 120.94 189.21 122.40 189.09 123.50 C 188.97 124.60 188.79 129.28 188.68 133.89 L 188.50 142.28 L 183.43 141.68 C 180.64 141.35 177.02 141.35 175.38 141.67 C 172.46 142.26 172.41 142.37 172.70 147.88 L 173.00 153.50 L 180.75 153.79 L 188.50 154.08 L 188.50 166.38 C 188.50 173.14 188.82 178.99 189.21 179.38 C 189.60 179.77 192.19 179.96 194.96 179.79 C 199.54 179.53 200.01 179.27 200.15 177.00 Z"/>
</svg>
