<svg xmlns="http://www.w3.org/2000/svg" viewBox="0 0 388 388" width="388" height="388">
  <path fill="#101a0c" fill-rule="evenodd" d="M 186.33 368.92 C 186.00 368.05 186.79 365.46 188.09 363.17 C 189.85 360.07 190.46 357.46 190.47 353.00 C 190.48 345.90 189.19 342.46 182.85 332.71 C 175.45 321.32 173.68 315.78 173.64 304.00 C 173.62 295.05 173.96 293.11 176.90 285.50 C 183.62 268.14 183.87 266.04 182.01 241.90 C 180.95 228.16 180.13 222.03 179.45 222.72 C 179.22 222.95 178.12 228.51 177.00 235.07 C 173.53 255.47 169.38 265.14 156.10 283.72 C 146.18 297.60 145.53 308.24 153.60 325.00 C 158.01 334.17 158.41 335.62 158.44 342.50 C 158.46 347.72 157.95 350.95 156.77 353.14 C 152.80 360.44 144.88 365.44 139.45 364.08 C 136.11 363.24 136.37 361.73 140.61 357.38 C 143.36 354.57 144.35 352.61 144.73 349.21 C 145.40 343.23 143.89 339.10 137.51 329.51 C 130.24 318.59 128.48 313.18 128.57 302.00 C 128.67 290.22 130.89 284.47 141.25 269.05 C 150.89 254.73 154.43 247.43 156.47 237.68 C 158.14 229.71 158.48 222.50 157.18 222.50 C 156.73 222.50 155.56 225.09 154.58 228.25 C 149.34 245.17 138.80 259.25 123.92 269.25 C 109.43 278.97 104.10 287.49 105.29 299.03 C 105.83 304.29 106.72 306.24 113.50 317.17 C 116.16 321.45 116.50 322.88 116.50 329.73 C 116.50 337.28 116.41 337.56 112.91 341.06 C 108.70 345.26 102.79 346.62 99.50 344.14 C 97.55 342.67 97.59 342.55 101.25 339.18 C 104.52 336.17 105.00 335.15 105.00 331.20 C 105.00 327.37 104.35 325.88 100.75 321.45 C 89.55 307.68 87.47 302.64 88.21 291.09 C 89.11 277.15 95.75 267.38 113.35 254.09 C 134.73 237.95 141.21 228.52 145.55 207.24 C 147.23 199.03 147.04 197.40 144.63 199.39 C 141.84 201.71 134.06 185.92 133.84 177.50 C 133.78 175.03 133.29 168.35 132.76 162.67 C 130.85 142.34 134.88 120.63 143.13 106.86 C 155.71 85.85 178.66 74.83 202.42 78.36 C 234.45 83.12 254.98 110.92 254.97 149.50 C 254.96 173.54 252.77 186.85 247.27 196.28 C 245.25 199.75 244.51 200.34 243.36 199.39 C 241.04 197.46 240.91 198.78 242.55 207.48 C 246.45 228.00 252.49 237.34 270.99 251.46 C 284.84 262.03 292.23 269.65 295.52 276.73 C 302.53 291.86 300.49 305.62 289.33 318.37 C 281.34 327.51 280.24 334.40 286.09 338.72 C 291.47 342.71 288.75 346.43 281.45 345.06 C 277.28 344.27 272.55 339.68 270.96 334.88 C 268.82 328.40 270.83 321.60 278.41 309.73 C 282.38 303.52 283.47 297.77 281.99 290.95 C 280.44 283.83 275.28 277.44 265.76 270.83 C 249.41 259.49 240.56 248.04 233.97 229.72 C 230.70 220.63 229.55 220.68 230.33 229.89 C 231.30 241.30 235.09 251.35 243.41 264.50 C 252.61 279.04 255.88 287.14 256.67 297.35 C 257.47 307.77 255.98 313.74 249.49 326.03 C 240.55 342.97 240.06 349.36 247.11 357.01 C 251.50 361.76 251.86 363.09 249.03 363.99 C 243.23 365.83 233.93 359.77 230.26 351.75 C 226.70 343.97 227.33 334.03 232.05 323.50 C 235.13 316.63 235.42 315.15 235.46 306.00 C 235.50 296.19 235.42 295.84 231.23 287.50 C 228.88 282.82 224.74 274.95 222.03 270.00 C 215.69 258.42 212.55 248.80 210.47 234.50 C 208.72 222.52 208.49 221.68 207.25 222.92 C 206.22 223.94 206.30 250.74 207.37 263.00 C 208.42 275.05 207.70 278.34 201.19 291.44 C 196.70 300.48 196.50 301.26 196.50 309.44 C 196.50 317.49 196.77 318.57 200.96 327.50 C 205.02 336.13 205.43 337.69 205.42 344.50 C 205.39 356.00 200.20 365.74 192.28 369.12 C 188.14 370.89 187.07 370.86 186.33 368.92 Z M 103.37 210.75 C 103.22 203.84 100.72 194.86 97.69 190.37 C 95.67 187.37 90.17 182.69 85.41 179.90 C 83.64 178.86 83.72 178.58 86.86 175.00 C 92.42 168.68 94.30 163.20 94.27 153.50 C 94.25 146.72 93.70 143.58 91.56 138.00 C 87.04 126.24 86.98 126.76 92.47 129.83 C 97.86 132.84 116.79 146.07 121.71 150.26 C 124.83 152.92 124.95 153.31 125.60 163.11 L 126.27 173.23 L 122.88 173.82 C 121.02 174.14 115.78 174.93 111.24 175.57 C 106.69 176.21 102.77 177.07 102.51 177.48 C 102.26 177.89 106.68 178.94 112.33 179.81 C 117.99 180.69 123.85 181.87 125.36 182.45 L 128.10 183.49 L 122.06 190.67 C 118.74 194.62 116.16 197.99 116.32 198.16 C 116.49 198.33 119.60 196.89 123.24 194.96 L 129.84 191.45 L 133.31 197.98 C 135.22 201.58 136.44 204.73 136.03 204.98 C 135.62 205.24 131.68 206.58 127.28 207.97 C 122.88 209.36 116.00 211.85 112.00 213.50 C 108.00 215.15 104.45 216.50 104.11 216.50 C 103.78 216.50 103.44 213.91 103.37 210.75 Z M 278.00 214.34 C 275.52 213.23 268.77 210.74 263.00 208.80 C 257.23 206.86 252.36 205.15 252.19 205.00 C 252.02 204.84 253.23 201.74 254.88 198.11 C 258.26 190.64 258.07 190.67 266.75 196.16 C 269.64 197.98 272.00 199.18 272.00 198.81 C 272.00 198.45 269.31 194.88 266.02 190.87 C 262.48 186.55 260.48 183.32 261.10 182.94 C 261.68 182.58 267.62 181.29 274.29 180.06 L 286.43 177.85 L 281.96 176.75 C 279.51 176.15 273.96 175.11 269.64 174.43 L 261.78 173.19 L 262.18 163.19 L 262.58 153.19 L 266.90 149.60 C 277.43 140.83 300.00 125.98 300.00 127.82 C 300.00 128.06 298.91 130.71 297.58 133.72 C 290.60 149.50 292.19 166.83 301.40 175.42 C 302.83 176.76 304.00 178.15 304.00 178.52 C 304.00 178.90 301.78 180.58 299.07 182.27 C 289.79 188.03 284.81 197.16 284.63 208.74 C 284.55 213.20 284.08 216.46 283.50 216.42 C 282.95 216.39 280.48 215.45 278.00 214.34 Z M 95.00 209.02 C 95.00 206.55 95.72 205.08 97.67 203.54 C 100.70 201.17 101.96 202.07 101.98 206.63 C 102.00 209.52 100.32 211.36 97.10 211.98 C 95.30 212.33 95.00 211.90 95.00 209.02 Z M 220.03 193.07 C 218.51 189.08 218.66 188.81 222.75 188.14 C 231.62 186.68 236.04 181.05 237.79 169.00 C 238.35 165.15 239.15 160.93 239.56 159.62 C 240.28 157.30 240.10 157.34 233.25 160.94 C 227.96 163.72 223.90 167.05 217.06 174.21 C 208.12 183.57 207.97 183.81 209.67 185.88 C 211.90 188.61 220.41 196.39 220.78 196.04 C 220.93 195.90 220.59 194.56 220.03 193.07 Z M 173.85 190.06 C 176.68 187.07 179.00 184.33 179.00 183.98 C 179.00 183.62 175.54 179.53 171.31 174.89 C 163.44 166.24 155.55 160.18 150.52 158.92 C 147.88 158.25 147.74 158.37 148.45 160.60 C 148.87 161.92 149.54 165.93 149.95 169.50 C 151.23 180.87 155.52 186.36 164.64 188.31 C 168.51 189.14 169.01 190.08 167.50 193.75 C 166.17 196.99 168.68 195.54 173.85 190.06 Z M 186.00 63.04 L 186.00 54.58 L 176.75 54.29 L 167.50 54.00 L 167.21 45.79 L 166.92 37.58 L 176.21 37.29 L 185.50 37.00 L 186.00 27.50 L 186.50 18.00 L 194.50 18.00 L 202.50 18.00 L 202.79 27.71 L 203.07 37.43 L 212.29 37.71 L 221.50 38.00 L 221.50 46.00 L 221.50 54.00 L 212.25 54.29 L 203.00 54.58 L 203.00 63.04 L 203.00 71.50 L 194.50 71.50 L 186.00 71.50 L 186.00 63.04 Z"/>
</svg>
