<svg xmlns="http://www.w3.org/2000/svg" viewBox="0 0 388 388" width="388" height="388">
  <path fill="#101a0c" fill-rule="evenodd" d="M 114.50 331.08 C 114.50 328.30 118.32 320.91 122.39 315.84 C 129.54 306.92 141.09 300.52 157.21 296.52 C 164.32 294.76 168.08 294.25 183.00 293.03 C 189.59 292.49 189.69 292.41 185.00 291.44 C 178.42 290.08 156.60 290.41 149.00 291.98 C 145.15 292.78 138.00 295.45 133.11 297.92 L 124.22 302.40 L 124.78 295.70 C 125.48 287.35 130.48 271.53 135.74 261.00 C 144.67 243.14 154.93 229.81 179.86 203.71 C 194.50 188.38 198.49 183.44 202.25 176.00 C 205.10 170.36 206.71 161.68 205.59 158.00 C 205.08 156.35 204.63 155.69 204.59 156.53 C 204.39 160.01 197.56 172.24 194.14 175.24 C 187.21 181.32 185.09 181.99 172.50 182.02 C 161.29 182.04 160.85 182.13 155.00 185.43 C 151.70 187.30 144.89 191.00 139.86 193.66 C 130.38 198.67 125.53 203.11 123.05 209.04 C 121.39 213.00 121.38 213.00 117.55 211.03 C 111.08 207.68 104.83 196.72 103.00 185.50 C 102.47 182.24 102.90 181.51 109.23 174.93 C 112.97 171.05 119.25 163.10 123.18 157.26 C 129.39 148.06 130.42 145.90 130.99 140.83 C 132.16 130.46 136.12 124.08 149.28 111.37 C 155.76 105.12 164.82 95.36 169.44 89.69 C 179.35 77.49 190.18 67.23 200.38 60.39 C 204.44 57.66 207.91 55.57 208.08 55.75 C 208.25 55.92 206.87 59.87 205.02 64.53 C 201.49 73.37 198.50 85.94 198.50 91.90 C 198.50 93.81 198.05 95.66 197.50 96.00 C 195.46 97.26 196.66 98.55 202.75 101.62 C 210.98 105.77 220.90 115.89 225.65 125.00 C 238.34 149.34 238.24 177.79 225.33 213.49 C 215.10 241.80 214.44 244.13 213.86 254.17 C 213.15 266.64 215.04 276.13 220.42 287.00 C 227.67 301.66 239.22 313.28 254.00 320.78 C 258.48 323.05 260.46 324.53 259.50 324.89 C 254.92 326.60 247.58 327.61 236.00 328.14 C 225.11 328.64 219.99 328.31 204.50 326.12 C 194.32 324.68 183.97 323.23 181.50 322.90 C 174.58 321.97 153.33 322.33 145.77 323.51 C 137.41 324.81 129.91 326.85 121.74 330.05 C 114.39 332.92 114.50 332.91 114.50 331.08 Z M 228.99 286.13 C 226.40 282.17 223.45 272.66 222.24 264.36 C 220.67 253.63 222.09 246.16 229.39 226.67 C 232.61 218.05 235.99 208.41 236.90 205.25 L 238.56 199.50 L 250.28 199.42 L 262.00 199.34 L 258.00 197.46 C 255.80 196.42 250.93 194.77 247.18 193.80 C 240.43 192.04 240.37 191.99 240.92 189.01 C 242.35 181.17 243.61 165.54 243.32 159.21 L 243.00 152.17 L 250.50 149.25 C 262.81 144.44 262.80 144.48 251.80 144.78 L 241.60 145.07 L 238.97 136.53 C 234.09 120.71 224.73 107.48 212.72 99.45 L 205.45 94.58 L 208.22 93.15 C 217.88 88.18 239.03 84.81 253.90 85.87 C 258.82 86.22 263.07 86.74 263.36 87.02 C 263.64 87.31 262.04 89.44 259.80 91.77 C 254.58 97.18 252.46 101.44 251.81 107.86 C 250.49 120.68 256.06 127.91 273.72 136.31 C 280.20 139.39 285.50 142.18 285.50 142.51 C 285.50 142.83 283.47 144.09 280.98 145.30 C 265.36 152.89 258.77 169.47 265.87 183.31 C 267.37 186.23 271.95 192.13 276.05 196.42 C 280.15 200.71 283.50 204.45 283.50 204.72 C 283.50 205.00 281.25 205.49 278.50 205.81 C 264.53 207.47 253.50 218.80 253.50 231.50 C 253.50 235.73 256.42 244.37 259.54 249.37 L 262.42 254.00 L 254.71 254.55 C 244.16 255.31 238.29 258.88 234.23 267.00 C 232.06 271.33 230.20 281.28 230.83 285.16 C 231.47 289.12 231.08 289.32 228.99 286.13 Z M 131.75 211.84 C 129.38 210.88 130.51 207.72 134.50 204.12 C 136.70 202.13 139.40 200.50 140.50 200.50 C 142.16 200.50 142.50 201.17 142.50 204.43 C 142.50 210.21 137.04 213.97 131.75 211.84 Z M 149.50 154.50 C 150.88 153.42 153.43 152.53 155.18 152.52 C 162.62 152.47 167.82 148.52 169.96 141.32 C 170.75 138.67 172.54 135.01 173.94 133.16 C 177.10 129.03 177.19 128.01 174.25 129.89 C 173.01 130.69 168.37 132.72 163.94 134.42 C 159.47 136.13 154.71 138.73 153.26 140.25 C 150.72 142.92 144.88 156.52 146.29 156.48 C 146.68 156.47 148.12 155.58 149.50 154.50 Z"/>
</svg>
