<svg xmlns="http://www.w3.org/2000/svg" viewBox="0 0 388 388" width="388" height="388">
  <path fill="#101a0c" fill-rule="evenodd" d="M 143.47 325.75 C 144.07 322.33 142.31 318.66 136.78 311.78 C 132.80 306.82 130.72 297.77 132.00 291.01 C 133.43 283.47 137.03 277.83 146.84 267.75 C 155.12 259.25 156.95 256.34 150.73 261.57 C 149.05 262.99 142.87 266.56 137.00 269.50 C 119.46 278.30 115.45 283.17 116.04 294.99 C 116.87 311.61 116.01 315.87 110.83 320.70 C 106.56 324.69 96.83 327.50 94.69 325.36 C 94.34 325.00 96.05 322.95 98.50 320.79 C 105.05 315.03 105.84 311.42 103.02 300.36 C 100.39 290.05 100.71 284.51 104.38 276.49 C 108.07 268.43 114.41 263.05 128.73 255.82 C 143.50 248.36 151.71 241.25 154.29 233.65 C 155.17 231.09 155.46 229.00 154.94 229.00 C 154.42 229.00 154.00 229.34 153.99 229.75 C 153.99 230.16 151.52 233.07 148.49 236.21 C 143.08 241.83 134.45 247.79 133.34 246.67 C 133.03 246.36 133.27 244.67 133.88 242.92 C 135.55 238.13 136.81 221.37 138.53 181.00 C 139.38 160.93 140.49 137.30 140.99 128.50 L 141.90 112.50 L 137.88 108.91 L 133.85 105.32 L 134.92 95.91 C 135.50 90.73 136.65 80.88 137.47 74.00 C 138.29 67.12 138.97 60.94 138.98 60.25 C 139.00 59.30 142.86 59.00 154.89 59.00 L 170.78 59.00 L 174.14 68.75 L 177.50 78.50 L 194.87 78.50 L 212.24 78.50 L 215.74 68.75 L 219.23 59.00 L 234.50 59.00 L 249.77 59.00 L 250.36 63.25 C 250.69 65.59 251.90 75.99 253.06 86.37 L 255.17 105.24 L 251.61 108.89 C 248.28 112.30 248.07 112.87 248.53 117.52 C 248.79 120.26 249.49 136.00 250.07 152.50 C 251.80 201.73 253.74 237.28 254.91 240.99 C 255.51 242.91 256.00 245.07 256.00 245.77 C 256.00 248.11 248.15 242.81 240.77 235.50 C 233.37 228.16 232.49 228.76 237.59 237.65 C 241.25 244.04 248.34 249.59 261.26 256.17 C 284.77 268.16 291.31 279.90 286.03 300.59 C 283.95 308.78 283.91 309.48 285.42 313.44 C 286.30 315.75 288.59 319.15 290.51 321.01 C 292.43 322.87 294.00 324.81 294.00 325.33 C 294.00 327.27 284.73 325.19 280.69 322.35 C 274.30 317.86 272.43 313.85 272.85 305.50 C 273.57 291.01 273.37 288.58 271.17 284.29 C 268.29 278.71 264.78 276.06 250.18 268.51 L 237.90 262.16 L 245.04 269.68 C 254.30 279.42 258.01 286.97 257.98 296.00 C 257.95 303.31 255.96 308.67 251.28 314.07 C 247.15 318.82 246.00 321.29 246.00 325.43 C 246.00 327.40 245.75 329.00 245.43 329.00 C 243.65 329.00 241.11 326.68 240.02 324.06 C 238.54 320.46 239.14 317.60 243.08 309.51 C 249.55 296.26 245.98 286.64 230.49 275.54 C 218.51 266.96 212.69 258.44 209.99 245.50 C 208.86 240.06 208.65 239.73 207.78 242.00 C 206.34 245.71 207.58 257.26 209.99 262.72 C 211.15 265.35 214.25 270.65 216.88 274.50 C 223.20 283.74 225.00 288.64 225.00 296.55 C 225.00 305.06 223.31 308.81 216.09 316.33 C 212.81 319.74 209.66 323.77 209.09 325.27 C 207.79 328.70 206.24 328.76 204.97 325.43 C 203.73 322.15 204.56 318.65 207.95 313.00 C 215.29 300.77 214.54 292.44 205.10 281.22 C 200.68 275.97 196.02 266.74 196.01 263.19 C 196.00 261.91 195.56 261.16 195.00 261.50 C 194.45 261.84 194.00 263.01 194.00 264.09 C 194.00 267.04 189.70 274.97 184.08 282.39 C 175.65 293.53 174.98 300.01 181.05 311.48 C 184.25 317.51 185.04 320.00 184.80 323.24 C 184.42 328.43 182.60 329.09 180.43 324.81 C 179.51 322.99 176.15 318.77 172.97 315.44 C 166.71 308.86 165.01 304.83 165.01 296.50 C 165.01 289.54 166.35 285.40 171.03 277.94 C 177.20 268.09 181.85 258.19 182.57 253.36 C 183.20 249.18 182.33 239.34 181.41 240.26 C 181.17 240.50 180.28 243.35 179.44 246.60 C 175.98 259.93 170.49 267.88 159.68 275.22 C 142.94 286.58 139.70 296.60 147.65 312.30 C 150.73 318.36 150.44 324.41 146.95 327.24 C 143.78 329.81 142.84 329.41 143.47 325.75 Z M 213.52 164.94 C 218.44 162.53 222.93 159.13 228.75 153.42 C 233.29 148.96 237.00 144.79 237.00 144.16 C 237.00 143.53 233.29 139.28 228.75 134.73 C 217.55 123.49 210.28 119.88 197.58 119.26 C 186.66 118.73 179.30 120.71 170.59 126.48 C 165.63 129.78 154.12 141.39 153.16 144.07 C 152.65 145.50 165.70 158.60 171.06 162.04 C 179.81 167.65 185.33 169.10 196.52 168.70 C 205.52 168.38 207.26 168.00 213.52 164.94 Z M 186.75 160.98 C 180.80 159.48 173.85 155.57 167.10 149.93 L 160.86 144.71 L 165.18 140.27 C 182.83 122.10 204.42 121.46 222.90 138.57 L 229.27 144.46 L 223.88 149.29 C 215.92 156.44 206.10 160.98 197.48 161.50 C 193.64 161.73 188.81 161.50 186.75 160.98 Z M 200.97 153.72 C 204.48 151.95 208.00 146.28 208.00 142.41 C 208.00 138.63 206.65 137.45 202.75 137.86 C 200.40 138.11 200.00 137.78 200.00 135.63 C 200.00 134.25 200.50 132.81 201.11 132.43 C 202.94 131.30 199.93 130.03 195.38 130.02 C 188.06 129.99 182.30 136.77 183.31 144.26 C 184.42 152.57 193.57 157.47 200.97 153.72 Z"/>
</svg>
