<svg xmlns="http://www.w3.org/2000/svg" viewBox="0 0 388 388" width="388" height="388">
  <path fill="#5f8f3d" fill-rule="evenodd" d="M 142.50 307.53 C 126.50 304.03 116.30 299.64 116.84 296.50 C 117.03 295.40 119.66 285.50 122.68 274.50 C 125.70 263.50 129.93 247.59 132.08 239.15 C 136.53 221.71 140.47 213.24 148.17 204.60 C 154.19 197.84 153.38 197.49 164.09 211.54 C 170.02 219.34 172.59 221.71 182.26 228.31 C 188.45 232.54 193.98 236.00 194.54 236.00 C 195.11 236.00 200.51 232.60 206.54 228.45 C 213.95 223.36 218.94 219.06 221.94 215.20 C 224.38 212.07 228.34 207.16 230.73 204.29 L 235.08 199.09 L 238.37 202.79 C 243.07 208.09 247.77 215.24 250.51 221.28 C 252.60 225.88 272.00 295.10 272.00 297.96 C 272.00 300.87 249.31 307.79 236.88 308.67 L 228.15 309.29 L 227.13 305.39 C 226.57 303.25 222.71 287.77 218.54 271.00 C 214.38 254.22 210.77 239.92 210.51 239.22 C 210.19 238.35 207.68 239.56 202.73 242.97 C 198.71 245.74 194.96 248.00 194.39 248.00 C 193.82 248.00 190.07 245.73 186.05 242.96 C 182.03 240.20 178.61 238.06 178.45 238.21 C 178.30 238.37 174.25 254.36 169.46 273.75 L 160.75 309.00 L 154.63 308.92 C 151.26 308.88 145.80 308.25 142.50 307.53 Z M 198.42 222.95 C 200.04 217.19 208.25 201.98 213.17 195.62 C 216.10 191.84 220.46 186.23 222.85 183.15 C 226.89 177.96 227.17 177.22 226.61 173.14 C 226.27 170.72 225.48 167.01 224.85 164.89 C 223.81 161.43 223.43 161.10 221.10 161.66 C 216.33 162.81 207.56 167.74 201.12 172.89 C 197.61 175.70 194.53 178.00 194.27 178.00 C 194.01 178.00 190.21 175.29 185.81 171.98 C 176.86 165.24 174.14 163.67 168.81 162.21 C 165.26 161.23 165.09 161.31 164.09 164.18 C 162.35 169.17 161.71 176.58 162.83 178.69 C 163.41 179.77 167.09 184.67 171.01 189.58 C 174.93 194.48 180.13 201.86 182.56 205.96 C 186.72 212.99 190.70 222.64 189.80 223.54 C 188.53 224.80 175.44 214.19 170.34 207.77 C 167.16 203.77 160.66 196.38 155.88 191.36 C 151.11 186.33 146.91 181.29 146.55 180.15 C 145.71 177.52 150.13 152.22 153.48 140.50 C 159.16 120.57 171.31 100.56 186.48 86.15 L 194.10 78.91 L 198.02 82.02 C 207.44 89.48 219.11 104.31 226.40 118.10 C 233.02 130.60 236.75 143.27 240.97 167.58 C 243.38 181.46 244.04 179.72 231.18 193.33 C 226.40 198.38 220.28 205.46 217.57 209.07 C 214.85 212.69 210.58 217.00 208.07 218.65 C 205.55 220.30 202.20 222.50 200.62 223.53 L 197.74 225.40 L 198.42 222.95 Z M 178.09 179.13 C 175.12 178.30 172.37 174.58 171.49 170.20 L 170.82 166.90 L 174.61 168.48 C 179.17 170.39 184.93 174.65 185.72 176.71 C 186.76 179.43 183.21 180.56 178.09 179.13 Z M 203.75 179.35 C 201.31 178.66 201.53 177.86 205.25 174.03 C 208.20 171.00 216.64 166.30 217.53 167.20 C 218.37 168.04 215.65 176.01 214.02 177.48 C 212.14 179.19 206.65 180.19 203.75 179.35 Z"/>
</svg>
