<svg xmlns="http://www.w3.org/2000/svg" viewBox="0 0 388 388" width="388" height="388">
  <path fill="#5f8f3d" fill-rule="evenodd" d="M 141.50 360.63 C 139.55 359.17 139.58 359.06 143.14 355.78 C 147.46 351.81 149.17 346.67 147.96 341.31 C 147.49 339.22 144.94 333.31 142.30 328.16 C 137.60 318.99 137.50 318.63 137.50 309.65 C 137.51 301.50 137.85 299.79 140.60 294.00 C 142.29 290.43 145.95 284.55 148.72 280.94 C 155.11 272.64 157.63 267.68 159.49 259.78 C 161.08 253.05 161.53 242.98 160.18 244.55 C 159.73 245.07 158.11 248.78 156.57 252.79 C 151.12 267.08 144.07 275.20 130.84 282.44 C 114.14 291.58 109.86 303.88 118.51 317.88 C 125.05 328.47 124.33 338.39 116.70 343.04 C 112.92 345.35 110.09 345.52 107.47 343.60 C 105.64 342.26 105.69 342.09 108.78 339.20 C 111.34 336.82 112.00 335.40 112.00 332.32 C 112.00 328.30 110.90 326.20 105.35 319.61 C 100.60 313.97 98.65 307.29 99.22 298.52 C 100.06 285.39 106.04 277.04 122.21 266.41 C 140.77 254.21 146.17 245.85 149.54 224.10 C 150.13 220.32 150.00 219.79 148.63 220.31 C 145.30 221.59 139.88 208.33 138.28 195.00 C 137.14 185.48 137.47 170.31 138.97 164.00 C 141.09 155.04 145.47 146.44 150.34 141.71 C 155.81 136.40 166.21 130.79 175.00 128.42 C 184.08 125.97 204.19 125.90 213.00 128.28 C 239.01 135.30 251.01 151.65 251.00 180.06 C 250.99 199.04 247.46 213.63 241.41 219.68 L 238.68 222.41 L 240.33 230.95 C 242.30 241.17 246.56 250.27 251.99 255.87 C 254.17 258.12 259.91 262.55 264.73 265.71 C 281.20 276.50 287.83 285.42 288.75 298.00 C 289.48 308.08 288.42 310.89 278.55 324.99 C 274.44 330.87 274.53 335.41 278.86 339.02 C 281.87 341.54 281.99 341.87 280.49 343.37 C 278.32 345.53 275.20 345.42 271.30 343.04 C 266.64 340.20 264.87 336.88 264.72 330.71 C 264.61 326.01 265.15 324.38 268.75 318.39 C 271.04 314.60 273.20 309.68 273.55 307.46 C 275.07 297.83 268.82 288.53 256.18 281.60 C 243.77 274.79 235.47 264.63 231.00 250.75 C 229.80 247.04 228.58 244.00 228.27 244.00 C 227.97 244.00 227.95 247.99 228.23 252.87 C 228.84 263.56 231.50 270.08 239.54 280.59 C 242.52 284.48 246.21 290.33 247.73 293.59 C 250.16 298.77 250.50 300.69 250.50 309.17 L 250.50 318.84 L 245.38 328.67 C 242.56 334.08 239.97 339.85 239.61 341.50 C 238.67 345.92 240.50 350.90 244.60 355.10 C 248.74 359.34 248.40 361.00 243.39 361.00 C 234.42 361.00 226.03 351.20 226.01 340.70 C 226.00 339.15 227.62 333.08 229.60 327.20 C 232.51 318.53 233.10 315.52 232.68 311.33 C 231.98 304.37 229.27 298.61 223.58 292.00 C 214.74 281.74 210.94 273.10 208.98 258.75 C 207.55 248.32 206.91 246.57 205.96 250.50 C 204.38 257.05 204.95 277.39 206.98 286.55 C 210.36 301.84 209.43 309.10 202.20 323.88 C 195.44 337.69 195.31 347.24 201.76 355.74 C 208.16 364.17 197.28 364.25 189.36 355.84 C 185.18 351.39 183.44 347.72 181.97 340.24 C 180.54 333.01 181.54 326.10 185.56 315.45 C 188.47 307.71 188.80 297.42 186.42 289.00 C 185.56 285.98 184.49 276.52 184.03 268.00 C 183.57 259.48 182.76 251.39 182.24 250.03 C 181.44 247.95 181.11 248.85 180.09 255.78 C 177.47 273.74 174.08 282.28 165.69 292.08 C 158.23 300.79 156.05 305.77 156.02 314.13 C 156.01 318.94 156.73 322.65 158.64 327.63 C 162.11 336.67 162.26 344.77 159.07 351.36 C 155.38 358.97 145.94 363.95 141.50 360.63 Z M 113.00 229.87 C 113.00 227.04 112.47 222.97 111.82 220.81 C 110.41 216.08 104.51 209.13 99.73 206.55 L 96.26 204.68 L 99.55 200.37 C 105.83 192.14 106.38 178.55 100.88 167.76 C 99.77 165.59 99.12 163.54 99.44 163.22 C 100.39 162.28 106.70 165.69 118.73 173.63 C 127.44 179.38 130.00 181.58 130.01 183.29 C 130.01 184.50 130.30 188.49 130.64 192.14 L 131.27 198.78 L 128.38 199.32 C 126.80 199.62 122.46 200.43 118.75 201.12 C 115.04 201.80 112.00 202.68 112.00 203.07 C 112.00 203.45 115.66 204.30 120.13 204.96 C 124.60 205.61 129.33 206.56 130.65 207.06 L 133.05 207.97 L 128.47 213.59 C 125.95 216.69 124.09 219.42 124.34 219.67 C 124.59 219.92 127.11 218.92 129.94 217.44 C 132.77 215.96 135.21 214.92 135.37 215.12 C 135.96 215.88 141.00 225.26 141.00 225.59 C 141.00 225.78 137.14 227.11 132.42 228.55 C 127.70 229.99 121.96 232.02 119.67 233.06 C 113.43 235.90 113.00 235.69 113.00 229.87 Z M 260.32 230.24 L 247.15 225.75 L 249.78 220.37 C 251.23 217.42 252.83 215.00 253.34 215.00 C 253.84 215.00 256.72 216.41 259.74 218.13 C 266.07 221.76 265.92 220.59 259.06 212.80 C 255.09 208.30 255.01 208.07 256.97 207.02 C 258.09 206.42 262.85 205.43 267.56 204.82 C 272.27 204.22 275.75 203.36 275.31 202.93 C 274.86 202.50 270.71 201.43 266.07 200.56 C 261.43 199.69 257.56 198.87 257.46 198.74 C 257.36 198.61 257.49 194.61 257.76 189.86 L 258.24 181.22 L 268.87 174.23 C 282.16 165.49 287.70 162.36 288.47 163.14 C 288.80 163.47 288.13 166.14 286.97 169.07 C 282.01 181.66 282.57 192.66 288.57 200.52 L 291.89 204.87 L 287.48 207.46 C 279.68 212.03 275.00 220.73 275.00 230.66 C 275.00 233.05 274.66 234.94 274.25 234.87 C 273.84 234.79 267.57 232.71 260.32 230.24 Z M 178.00 212.69 L 181.00 208.60 L 177.76 205.05 C 168.06 194.42 166.12 192.64 162.00 190.56 C 159.53 189.31 156.21 187.97 154.62 187.59 C 152.21 187.01 151.85 187.16 152.38 188.55 C 152.73 189.46 153.67 193.32 154.46 197.13 C 155.25 200.94 156.89 205.44 158.10 207.14 C 160.49 210.49 165.40 213.00 169.57 213.00 C 171.70 213.00 172.07 213.34 171.49 214.75 C 171.10 215.71 170.53 217.34 170.24 218.37 C 169.73 220.17 169.81 220.17 172.35 218.51 C 173.80 217.55 176.35 214.94 178.00 212.69 Z M 217.98 217.43 C 216.50 213.55 216.69 213.23 220.97 212.50 C 225.31 211.77 229.35 209.07 231.19 205.67 C 233.31 201.77 236.77 187.00 235.56 187.00 C 232.46 187.00 220.15 194.09 217.00 197.69 C 210.12 205.56 208.00 208.22 208.00 208.99 C 208.00 210.14 217.02 220.00 218.07 220.00 C 218.55 220.00 218.51 218.85 217.98 217.43 Z M 134.41 129.33 C 122.25 103.61 116.00 89.91 116.00 88.98 C 116.00 86.87 118.49 88.39 132.39 98.95 L 146.79 109.89 L 147.37 100.20 C 147.69 94.86 148.23 85.28 148.57 78.89 L 149.18 67.29 L 146.13 66.68 C 142.97 66.04 140.00 61.93 140.00 58.18 C 140.00 54.94 143.83 51.00 146.99 51.00 C 151.20 51.00 152.91 51.92 154.54 55.07 C 156.58 59.01 156.39 60.38 153.32 64.03 C 151.21 66.54 150.87 67.57 151.71 68.91 C 154.59 73.52 175.32 100.01 175.73 99.61 C 175.99 99.35 180.09 89.03 184.85 76.67 C 189.61 64.31 193.95 54.18 194.50 54.16 C 195.49 54.12 198.61 61.65 207.70 85.98 C 210.27 92.86 212.67 98.85 213.02 99.28 C 213.37 99.71 217.65 94.76 222.53 88.28 C 227.40 81.80 233.12 74.40 235.23 71.83 L 239.06 67.15 L 236.53 64.62 C 231.36 59.45 234.63 51.00 241.81 51.00 C 248.99 51.00 251.91 59.78 246.39 64.75 C 245.01 65.99 243.00 67.00 241.91 67.00 C 239.97 67.00 239.94 67.50 240.60 88.25 C 240.97 99.94 241.35 109.60 241.43 109.71 C 241.52 109.83 247.75 105.27 255.28 99.58 C 268.76 89.38 271.79 87.46 272.80 88.46 C 273.35 89.02 269.13 98.41 256.75 124.21 L 248.72 140.92 L 242.82 135.57 C 230.52 124.44 214.18 118.76 194.50 118.76 C 174.71 118.76 158.57 124.36 146.24 135.52 L 140.00 141.17 L 134.41 129.33 Z M 104.59 82.92 C 101.20 78.89 101.30 75.55 104.92 71.92 C 108.35 68.49 111.71 68.20 115.29 71.01 C 118.63 73.64 119.57 78.00 117.60 81.81 C 114.85 87.13 108.58 87.67 104.59 82.92 Z M 273.36 83.63 C 267.68 78.75 271.39 69.00 278.92 69.00 C 280.62 69.00 282.77 70.04 284.36 71.64 C 292.11 79.38 281.66 90.77 273.36 83.63 Z M 189.87 47.75 C 182.98 39.50 183.02 40.00 188.57 32.64 C 191.28 29.04 193.81 26.07 194.20 26.05 C 194.98 25.99 204.00 36.85 204.72 38.70 C 205.29 40.20 196.36 52.00 194.65 52.00 C 193.98 52.00 191.83 50.09 189.87 47.75 Z"/>
</svg>
