<svg xmlns="http://www.w3.org/2000/svg" viewBox="0 0 320 320" width="320" height="320">
  <path fill="#2a1a0a" fill-rule="evenodd" d="M 157.66 296.94 C 150.63 294.12 144.15 287.20 142.05 280.25 C 141.04 276.94 142.93 277.39 151.45 282.52 C 155.55 284.98 159.62 287.00 160.49 287.00 C 161.35 287.00 165.56 284.92 169.83 282.38 C 174.10 279.84 177.86 278.03 178.19 278.36 C 179.44 279.60 175.23 288.03 171.91 290.95 C 169.00 293.50 161.27 298.15 160.29 297.94 C 160.13 297.90 158.95 297.45 157.66 296.94 Z M 133.65 283.30 C 131.81 282.40 129.84 280.64 129.27 279.40 C 128.30 277.27 128.97 270.00 130.14 270.00 C 130.44 270.00 131.95 270.90 133.49 271.99 C 135.48 273.41 136.42 275.07 136.73 277.74 C 136.98 279.81 137.52 282.29 137.95 283.25 C 138.90 285.41 137.95 285.42 133.65 283.30 Z M 182.84 282.90 C 183.21 281.58 183.78 278.86 184.11 276.86 C 184.51 274.46 185.69 272.49 187.56 271.12 C 190.58 268.88 190.87 269.01 191.87 273.19 C 192.79 277.07 190.88 280.42 186.24 283.03 L 182.19 285.30 L 182.84 282.90 Z M 157.00 281.42 C 155.35 280.05 149.70 275.99 144.45 272.42 C 138.24 268.18 134.26 264.71 133.05 262.46 C 132.02 260.56 130.84 259.00 130.42 259.00 C 130.00 259.00 128.25 257.82 126.53 256.37 C 122.77 253.21 119.83 247.72 119.35 243.00 C 118.90 238.50 120.84 238.06 125.95 241.53 L 129.80 244.14 L 129.17 238.83 C 128.54 233.57 124.31 223.79 120.59 219.03 L 118.66 216.56 L 111.76 218.78 C 104.58 221.09 99.98 221.59 99.10 220.16 C 98.53 219.24 101.52 208.70 103.29 205.39 C 104.31 203.49 103.96 203.09 99.41 200.96 C 93.13 198.02 85.24 189.84 85.68 186.72 C 85.93 184.98 86.75 184.44 89.50 184.21 C 94.65 183.79 98.70 181.96 98.08 180.34 C 97.79 179.58 95.81 176.38 93.69 173.23 C 91.57 170.08 88.50 164.79 86.86 161.47 C 85.22 158.16 81.28 151.99 78.10 147.77 C 74.75 143.31 72.63 139.60 73.05 138.92 C 74.25 136.97 83.80 138.56 90.69 141.86 C 94.16 143.51 98.97 146.56 101.37 148.61 L 105.74 152.36 L 105.00 148.93 C 104.11 144.83 101.08 138.63 97.93 134.50 C 96.44 132.54 95.92 130.98 96.45 130.00 C 99.32 124.67 98.19 122.17 94.44 125.56 C 92.86 126.98 92.55 126.88 90.74 124.31 C 85.14 116.37 80.55 103.20 80.51 94.96 C 80.48 86.88 87.09 69.37 92.74 62.59 C 96.72 57.81 97.64 59.73 96.93 71.33 C 96.14 84.17 97.76 92.22 103.65 104.72 C 106.94 111.69 108.39 113.83 109.60 113.45 C 110.68 113.12 112.13 114.36 114.01 117.23 C 119.52 125.65 133.96 145.00 134.72 145.00 C 135.15 145.00 135.50 143.43 135.50 141.50 C 135.50 139.57 135.74 138.00 136.03 138.00 C 136.33 138.00 138.69 139.09 141.28 140.41 C 146.69 143.18 150.17 148.75 156.61 164.99 C 158.72 170.31 160.61 173.83 160.90 172.99 C 165.69 159.35 171.31 147.10 174.36 143.64 C 175.83 141.98 182.60 138.00 183.96 138.00 C 184.26 138.00 184.50 139.44 184.50 141.20 L 184.50 144.41 L 188.50 140.50 C 190.70 138.35 196.12 131.53 200.53 125.34 C 204.95 119.15 209.01 113.80 209.57 113.45 C 210.13 113.11 211.28 113.40 212.12 114.10 C 213.37 115.13 213.81 115.11 214.51 113.98 C 214.98 113.22 215.12 112.19 214.81 111.70 C 214.51 111.21 216.10 106.91 218.34 102.15 C 223.19 91.89 224.79 83.26 224.33 70.00 C 223.93 58.49 225.03 57.79 230.73 65.95 C 238.81 77.52 241.89 96.75 237.63 109.12 C 235.62 114.97 231.57 123.29 229.18 126.48 C 227.71 128.43 227.66 128.42 225.62 125.98 C 222.88 122.71 221.30 124.72 222.78 129.57 C 223.69 132.53 223.48 133.44 221.01 137.16 C 218.28 141.28 214.28 151.12 215.03 151.86 C 215.24 152.07 217.22 150.68 219.44 148.79 C 225.34 143.73 232.66 140.05 239.75 138.57 C 243.19 137.85 246.34 137.46 246.75 137.69 C 248.54 138.71 247.13 142.00 241.95 148.89 C 238.90 152.95 235.24 158.57 233.83 161.38 C 232.42 164.20 229.24 169.78 226.76 173.79 C 224.27 177.80 222.41 181.22 222.62 181.40 C 224.32 182.86 227.97 184.00 230.97 184.00 C 235.74 184.00 236.39 186.06 233.16 190.94 C 230.14 195.49 225.16 199.52 220.57 201.13 C 216.98 202.38 217.01 201.81 219.94 212.75 C 220.86 216.19 221.34 219.45 221.00 220.00 C 220.05 221.54 216.77 221.20 209.21 218.77 L 202.28 216.54 L 199.80 219.52 C 196.00 224.08 192.22 232.86 191.69 238.35 L 191.22 243.29 L 195.37 240.95 C 200.89 237.85 201.98 239.01 199.96 245.82 C 198.37 251.19 193.72 257.48 190.62 258.46 C 189.65 258.77 188.11 260.59 187.20 262.51 C 186.13 264.75 183.45 267.33 179.76 269.68 C 176.59 271.70 171.03 275.75 167.39 278.68 C 163.75 281.60 160.60 283.98 160.39 283.96 C 160.18 283.94 158.65 282.80 157.00 281.42 Z M 180.05 247.79 C 181.04 243.27 179.30 242.45 175.51 245.65 C 172.09 248.52 169.50 253.43 169.50 257.03 C 169.50 258.87 170.09 258.62 174.44 254.95 C 177.54 252.34 179.63 249.67 180.05 247.79 Z M 150.17 254.33 C 149.55 250.56 142.99 242.58 141.34 243.60 C 140.88 243.89 140.50 245.66 140.50 247.55 C 140.50 250.49 141.18 251.48 145.25 254.47 C 147.86 256.38 150.17 257.96 150.38 257.98 C 150.59 257.99 150.49 256.35 150.17 254.33 Z M 188.78 196.92 C 199.49 194.04 202.71 190.66 204.63 180.25 C 205.21 177.11 206.26 173.41 206.97 172.02 C 207.67 170.63 208.59 168.38 209.02 167.00 C 209.70 164.80 209.15 165.05 204.40 169.10 C 201.43 171.62 197.95 174.25 196.66 174.93 C 192.44 177.16 186.39 183.29 184.31 187.43 C 183.19 189.67 181.49 192.40 180.53 193.50 C 178.34 196.01 176.59 204.86 175.99 216.50 L 175.53 225.50 L 180.05 211.78 L 184.58 198.06 L 188.78 196.92 Z M 143.08 203.80 C 142.24 199.35 140.92 195.00 140.15 194.11 C 139.37 193.22 137.82 190.70 136.70 188.50 C 134.53 184.22 129.18 178.76 123.50 175.00 C 121.58 173.73 118.09 170.87 115.75 168.64 C 112.25 165.29 111.50 164.93 111.50 166.54 C 111.51 167.62 112.35 169.89 113.39 171.58 C 114.42 173.28 115.59 177.10 115.99 180.08 C 116.87 186.77 119.09 191.70 121.88 193.22 C 123.05 193.85 126.64 195.30 129.86 196.43 L 135.73 198.50 L 139.86 211.00 L 144.00 223.50 L 144.30 217.69 C 144.47 214.49 143.92 208.24 143.08 203.80 Z M 153.50 139.43 C 146.99 134.96 138.08 131.00 134.54 131.00 C 133.37 131.00 130.83 128.47 127.79 124.25 C 123.62 118.46 122.52 115.89 120.11 106.19 C 118.56 99.96 117.55 94.62 117.86 94.31 C 118.17 94.00 120.69 95.65 123.46 97.97 C 127.93 101.71 128.50 101.95 128.50 100.07 C 128.50 96.72 125.11 87.96 121.70 82.50 C 119.10 78.32 118.80 77.28 119.92 76.16 C 121.04 75.03 121.92 75.25 125.30 77.49 C 130.09 80.65 133.40 85.23 137.07 93.75 C 139.96 100.46 141.00 101.30 142.00 97.75 C 143.18 93.61 150.79 74.51 151.65 73.55 C 152.12 73.03 152.50 69.32 152.50 65.30 L 152.50 58.00 L 144.00 58.00 L 135.50 58.00 L 135.50 50.54 L 135.50 43.08 L 143.75 42.79 L 152.00 42.50 L 152.28 32.25 L 152.57 22.00 L 160.03 22.00 L 167.50 22.00 L 167.50 32.50 L 167.50 43.00 L 176.00 43.00 L 184.50 43.00 L 184.50 50.50 L 184.50 58.00 L 176.00 58.00 L 167.50 58.00 L 167.50 67.12 C 167.50 75.18 167.32 76.10 165.98 74.98 C 163.06 72.56 163.32 74.95 167.23 86.68 L 171.16 98.49 L 173.87 94.21 C 178.11 87.49 183.50 81.99 189.91 77.83 C 193.15 75.72 196.19 74.00 196.66 74.00 C 198.15 74.00 197.56 76.94 195.10 81.80 C 191.88 88.15 188.50 98.64 188.50 102.27 L 188.50 105.20 L 194.08 100.10 C 202.56 92.35 202.64 92.48 199.09 108.18 C 197.11 116.97 195.99 119.77 192.70 124.22 C 189.57 128.46 187.79 129.90 184.36 130.92 C 178.53 132.66 171.03 136.50 165.37 140.62 C 162.82 142.48 160.57 143.97 160.37 143.94 C 160.16 143.91 157.07 141.88 153.50 139.43 Z"/>
</svg>
