<svg xmlns="http://www.w3.org/2000/svg" viewBox="0 0 320 320" width="320" height="320">
  <path fill="#2a1a0a" fill-rule="evenodd" d="M 115.50 242.09 C 115.50 241.59 117.30 238.90 119.50 236.12 C 121.70 233.33 124.45 229.35 125.60 227.28 C 128.47 222.12 130.49 220.00 132.54 220.00 C 135.23 220.00 139.55 217.42 141.36 214.74 C 147.05 206.32 147.49 205.32 147.49 201.00 C 147.49 198.28 146.71 195.22 145.52 193.26 L 143.54 190.02 L 145.99 186.26 C 151.46 177.84 151.55 177.76 154.74 178.40 L 157.74 179.00 L 155.12 175.57 C 153.68 173.68 152.50 171.87 152.50 171.54 C 152.50 171.22 154.03 168.72 155.91 165.99 C 157.79 163.27 159.53 160.46 159.78 159.77 C 160.15 158.75 160.65 158.75 162.37 159.76 C 164.43 160.97 165.53 159.75 163.50 158.50 C 162.95 158.16 162.50 156.73 162.50 155.33 C 162.50 153.52 164.27 151.07 168.64 146.86 C 172.02 143.61 174.87 141.07 174.98 141.22 C 176.70 143.60 183.49 157.11 183.47 158.12 C 183.45 158.88 182.31 160.78 180.94 162.34 C 178.51 165.10 178.36 165.14 175.88 163.51 C 172.36 161.21 172.07 162.03 175.01 166.02 C 176.38 167.87 177.50 169.98 177.50 170.71 C 177.50 171.43 178.05 172.91 178.73 173.99 C 179.71 175.56 179.68 176.62 178.61 179.23 C 176.64 184.04 176.09 188.00 177.39 188.00 C 178.00 188.00 178.51 187.21 178.52 186.25 C 178.53 185.29 179.43 182.54 180.52 180.15 C 181.60 177.76 182.17 175.28 181.78 174.65 C 179.44 170.85 184.60 161.00 188.93 161.00 C 190.40 161.00 192.65 159.47 194.96 156.91 C 196.99 154.66 198.91 153.07 199.21 153.38 C 199.52 153.69 199.22 156.77 198.55 160.22 C 196.15 172.54 188.31 185.02 180.41 189.04 C 172.67 192.99 171.33 202.51 177.26 211.45 C 180.48 216.31 187.73 221.95 190.80 221.98 C 191.78 221.99 193.36 223.40 194.30 225.11 C 195.23 226.82 198.14 231.20 200.75 234.84 C 203.36 238.48 205.50 241.80 205.50 242.23 C 205.50 242.65 201.43 243.00 196.45 243.00 L 187.39 243.00 L 179.90 237.46 C 175.77 234.41 169.80 229.27 166.61 226.03 L 160.82 220.15 L 154.41 226.21 C 150.89 229.54 144.76 234.68 140.80 237.64 L 133.61 243.00 L 124.55 243.00 C 119.57 243.00 115.50 242.59 115.50 242.09 Z M 153.25 241.40 C 150.64 240.60 148.50 239.80 148.50 239.62 C 148.50 239.44 151.22 236.94 154.54 234.05 L 160.58 228.80 L 165.79 233.65 C 168.65 236.32 171.00 238.94 171.00 239.47 C 171.00 240.61 164.08 242.84 160.50 242.85 C 159.12 242.86 155.86 242.20 153.25 241.40 Z M 109.07 216.75 C 93.70 201.36 89.57 176.73 98.96 156.39 C 103.06 147.52 105.05 145.86 104.11 152.11 C 103.24 157.95 104.88 166.08 108.50 173.82 C 110.67 178.45 113.82 182.50 120.23 188.88 C 125.05 193.68 130.75 198.97 132.89 200.63 C 136.44 203.39 136.70 203.90 135.83 206.50 C 134.24 211.29 132.47 211.64 125.99 208.40 C 122.80 206.81 117.71 203.26 114.69 200.51 L 109.20 195.53 L 109.69 200.67 C 109.98 203.64 111.73 209.06 113.84 213.51 C 119.49 225.41 118.44 226.13 109.07 216.75 Z M 205.95 215.75 C 208.81 209.52 211.50 200.35 211.50 196.86 C 211.50 196.28 209.28 197.81 206.57 200.25 C 203.86 202.68 198.54 206.31 194.74 208.30 L 187.84 211.93 L 186.17 208.43 C 185.25 206.51 184.51 204.38 184.53 203.72 C 184.54 203.05 186.81 200.97 189.56 199.10 C 197.27 193.87 209.02 180.80 212.40 173.69 C 215.83 166.46 217.85 156.57 216.97 151.25 L 216.35 147.50 L 218.42 150.00 C 220.93 153.05 224.31 161.71 225.57 168.35 C 228.95 186.18 223.02 205.48 210.49 217.43 C 207.28 220.49 204.19 223.00 203.64 223.00 C 203.08 223.00 204.13 219.74 205.95 215.75 Z M 135.06 184.25 C 128.34 177.57 123.87 167.99 122.00 156.25 C 121.31 151.91 122.78 150.16 123.97 153.91 C 124.31 154.96 126.15 157.02 128.07 158.48 C 130.79 160.56 132.21 161.00 134.53 160.49 C 137.00 159.95 137.50 160.16 137.50 161.72 C 137.50 164.29 142.89 172.60 145.43 173.96 C 146.57 174.57 147.50 175.88 147.50 176.86 C 147.50 179.24 141.65 188.00 140.07 188.00 C 139.39 188.00 137.14 186.31 135.06 184.25 Z M 146.30 172.06 C 143.34 169.73 138.48 160.67 138.53 157.55 C 138.55 156.42 140.51 151.99 142.89 147.69 L 147.21 139.89 L 148.48 142.95 C 149.18 144.63 151.94 147.62 154.62 149.59 C 157.31 151.56 159.50 153.79 159.50 154.54 C 159.50 155.29 157.70 158.48 155.50 161.62 C 153.30 164.76 151.50 168.07 151.50 168.97 C 151.50 169.88 150.92 171.41 150.22 172.37 C 149.00 174.03 148.79 174.02 146.30 172.06 Z M 126.82 153.75 C 125.12 151.96 123.24 149.52 122.62 148.32 C 118.14 139.58 128.18 110.01 140.49 95.67 C 144.68 90.79 145.61 90.14 146.15 91.67 C 146.51 92.68 148.98 96.75 151.65 100.72 C 154.32 104.68 156.50 108.78 156.50 109.82 C 156.50 112.07 152.14 118.18 147.12 122.95 C 145.13 124.84 143.50 126.98 143.50 127.70 C 143.50 128.41 143.25 129.00 142.95 129.00 C 141.71 129.00 135.85 125.63 133.75 123.71 C 130.05 120.33 131.21 123.64 135.07 127.51 C 137.04 129.47 139.96 131.34 141.57 131.66 C 143.18 131.99 144.51 132.76 144.51 133.38 C 144.52 133.99 144.77 135.40 145.06 136.50 C 145.40 137.77 144.07 141.05 141.41 145.50 C 133.93 158.04 131.94 159.16 126.82 153.75 Z M 185.14 153.74 C 178.53 146.24 174.04 132.05 178.25 131.96 C 180.06 131.93 183.59 129.18 186.91 125.25 C 189.37 122.34 188.69 122.41 184.50 125.50 C 182.64 126.88 180.55 128.00 179.86 128.00 C 177.86 128.00 167.06 116.82 165.58 113.20 C 164.05 109.51 164.56 107.92 169.18 102.00 L 171.91 98.50 L 168.02 102.00 C 165.88 103.92 163.28 106.40 162.25 107.50 C 160.85 108.99 160.24 109.17 159.83 108.19 C 159.54 107.47 157.65 104.99 155.65 102.66 C 153.64 100.34 150.88 96.32 149.50 93.72 C 146.52 88.09 146.76 87.53 154.78 81.21 L 160.46 76.72 L 165.23 80.60 C 181.17 93.56 193.11 111.35 197.57 128.78 C 201.07 142.47 199.86 149.63 193.09 155.23 C 190.08 157.72 188.37 157.40 185.14 153.74 Z M 156.35 146.50 C 151.63 143.07 146.50 134.71 146.50 130.44 C 146.50 129.25 148.23 126.31 150.35 123.89 C 152.47 121.48 154.93 118.09 155.82 116.37 C 158.37 111.41 162.23 110.92 164.23 115.31 C 164.78 116.51 167.32 119.82 169.87 122.65 C 174.95 128.30 175.48 130.71 172.96 136.75 C 171.20 140.95 169.46 143.06 164.47 147.02 L 160.93 149.83 L 156.35 146.50 Z"/>
</svg>
