<svg xmlns="http://www.w3.org/2000/svg" viewBox="0 0 320 320" width="320" height="320">
  <path fill="#2a1a0a" fill-rule="evenodd" d="M 113.27 268.72 C 105.97 268.57 100.00 268.19 100.00 267.88 C 100.00 267.57 101.42 262.74 103.15 257.16 C 105.72 248.84 107.10 246.09 110.75 242.00 L 115.20 237.00 L 121.94 243.50 C 126.46 247.85 129.12 251.32 129.98 254.00 C 131.83 259.75 133.46 262.68 136.45 265.68 L 139.09 268.32 L 132.82 268.66 C 129.37 268.85 120.57 268.87 113.27 268.72 Z M 140.18 265.17 C 136.20 261.10 132.07 253.61 132.02 250.39 C 131.99 248.02 145.25 234.70 145.80 236.54 C 146.05 237.34 149.12 240.70 152.62 244.00 C 156.13 247.30 159.00 250.48 159.00 251.07 C 159.00 253.14 164.78 264.02 166.88 265.90 C 168.05 266.95 169.00 268.11 169.00 268.47 C 169.00 268.83 163.43 269.17 156.63 269.23 L 144.26 269.34 L 140.18 265.17 Z M 186.60 268.59 L 181.69 268.00 L 184.20 265.00 C 185.59 263.35 187.52 260.43 188.50 258.52 L 190.29 255.04 L 191.20 257.52 C 191.69 258.88 193.97 261.91 196.26 264.25 L 200.42 268.50 L 197.29 268.50 C 195.57 268.50 193.56 268.65 192.83 268.84 C 192.10 269.02 189.29 268.91 186.60 268.59 Z M 169.46 264.25 C 165.53 259.73 162.06 253.18 162.02 250.20 C 162.01 249.21 164.92 245.61 168.49 242.19 L 174.98 235.98 L 181.99 242.63 C 185.85 246.28 189.00 250.01 189.00 250.92 C 189.00 256.54 179.73 268.50 175.37 268.50 C 174.01 268.50 171.73 266.86 169.46 264.25 Z M 198.64 264.39 C 196.71 262.14 194.42 258.81 193.56 256.99 C 190.82 251.22 191.47 249.08 197.50 243.87 C 200.53 241.26 203.00 238.53 203.00 237.81 C 203.00 237.09 203.45 236.50 204.00 236.50 C 204.55 236.50 205.00 236.96 205.00 237.52 C 205.00 238.08 206.95 240.44 209.33 242.77 C 213.04 246.39 214.12 248.47 216.83 257.14 C 218.57 262.71 220.00 267.55 220.00 267.89 C 220.00 268.22 215.99 268.50 211.08 268.50 L 202.16 268.50 L 198.64 264.39 Z M 96.00 245.43 C 96.00 244.29 94.59 239.98 92.87 235.85 C 88.99 226.53 81.13 217.62 73.88 214.35 C 70.30 212.73 69.03 211.65 69.41 210.54 C 69.70 209.69 71.31 205.10 72.98 200.33 C 80.16 179.82 82.79 152.24 79.65 130.52 C 78.81 124.75 78.28 119.89 78.45 119.71 C 79.21 118.95 86.14 128.60 89.79 135.50 C 94.01 143.48 97.52 152.42 101.11 164.31 C 102.35 168.41 105.06 174.11 107.28 177.28 L 111.25 182.95 L 110.58 190.47 C 110.21 194.61 109.35 200.93 108.68 204.50 L 107.45 211.00 L 101.68 201.00 C 96.52 192.05 95.98 191.42 96.53 195.00 C 97.76 203.06 100.07 212.61 102.12 218.09 C 104.53 224.53 104.32 227.22 100.45 239.47 C 98.03 247.14 96.00 249.85 96.00 245.43 Z M 220.48 243.80 C 219.63 241.76 217.97 236.77 216.78 232.70 C 215.01 226.59 214.83 224.68 215.73 221.66 C 219.88 207.76 221.80 200.35 222.39 196.00 L 223.07 191.00 L 218.06 199.50 C 215.30 204.18 212.87 208.45 212.66 209.00 C 211.79 211.25 211.09 208.36 209.51 195.88 L 207.84 182.75 L 211.85 177.45 C 216.03 171.93 217.08 169.54 221.45 155.50 C 224.76 144.88 230.58 132.75 235.98 125.25 C 240.02 119.62 242.64 117.76 241.62 121.25 C 238.23 132.79 238.36 168.48 241.85 183.58 C 242.94 188.29 245.48 196.55 247.49 201.92 C 249.51 207.29 251.01 211.81 250.83 211.96 C 250.65 212.11 248.47 213.13 246.00 214.21 C 236.59 218.34 228.64 228.30 224.87 240.71 C 223.73 244.44 222.63 247.50 222.42 247.50 C 222.20 247.50 221.33 245.83 220.48 243.80 Z M 124.41 241.22 C 118.31 234.95 116.85 232.66 114.53 225.61 C 112.92 220.73 112.87 219.37 114.07 211.11 C 114.80 206.10 115.40 201.21 115.41 200.25 C 115.43 197.89 116.72 198.03 117.49 200.47 C 117.84 201.56 119.95 204.01 122.18 205.93 C 125.12 208.44 126.06 209.89 125.58 211.15 C 124.96 212.77 125.05 212.77 126.89 211.10 C 128.80 209.37 128.93 209.42 131.30 213.16 C 132.64 215.27 136.00 218.90 138.77 221.23 C 143.66 225.34 143.80 225.59 143.26 229.73 C 142.40 236.38 141.40 238.21 136.79 241.45 C 134.43 243.11 131.96 244.92 131.29 245.48 C 129.69 246.83 130.17 247.13 124.41 241.22 Z M 154.74 241.07 C 149.58 236.13 146.00 229.93 146.00 225.95 C 146.00 224.20 147.08 222.43 149.23 220.66 C 151.00 219.20 154.12 216.28 156.15 214.17 C 159.67 210.52 159.89 210.43 160.92 212.35 C 161.51 213.46 163.46 215.40 165.25 216.66 L 168.50 218.96 L 166.73 216.48 C 163.29 211.68 161.01 207.99 161.00 207.25 C 161.00 206.84 163.36 206.50 166.25 206.50 L 171.50 206.50 L 171.19 195.50 C 170.79 181.53 171.60 181.27 176.85 193.68 C 177.93 196.25 180.66 200.35 182.91 202.79 C 185.16 205.23 187.00 207.67 187.00 208.21 C 187.00 208.75 184.07 212.51 180.50 216.58 C 176.30 221.35 173.98 224.85 173.95 226.48 C 173.83 231.99 170.56 237.87 165.48 241.72 C 162.74 243.79 160.24 245.49 159.93 245.49 C 159.61 245.50 157.28 243.51 154.74 241.07 Z M 185.32 240.25 C 179.73 234.51 176.98 229.86 177.04 226.30 C 177.09 223.58 188.97 210.50 191.39 210.50 C 192.27 210.50 194.34 212.37 195.99 214.65 C 199.56 219.57 200.15 217.32 196.84 211.42 L 194.67 207.57 L 198.59 203.13 C 200.74 200.69 202.76 198.65 203.08 198.59 C 203.39 198.54 204.40 203.83 205.31 210.34 C 206.97 222.13 206.97 222.21 204.74 228.62 C 203.51 232.17 201.82 235.96 201.00 237.05 C 199.59 238.93 191.66 245.50 190.82 245.50 C 190.61 245.50 188.13 243.14 185.32 240.25 Z M 109.91 232.50 C 110.78 228.65 111.77 225.50 112.13 225.50 C 112.91 225.50 113.97 229.25 113.99 232.12 C 114.00 234.24 110.52 239.50 109.09 239.50 C 108.67 239.50 109.04 236.35 109.91 232.50 Z M 208.79 237.76 C 205.93 234.47 205.26 232.12 206.20 228.64 C 206.70 226.79 207.34 225.51 207.62 225.79 C 208.33 226.50 211.13 238.71 210.68 239.15 C 210.48 239.35 209.63 238.72 208.79 237.76 Z M 138.20 216.75 C 134.75 213.27 132.00 209.61 132.00 208.50 C 132.00 207.40 133.70 204.80 135.78 202.72 C 137.86 200.64 140.30 197.37 141.19 195.47 C 142.08 193.56 143.64 190.20 144.65 188.00 L 146.50 184.00 L 146.78 195.25 L 147.07 206.50 L 151.97 206.50 C 154.67 206.50 157.16 206.95 157.50 207.49 C 157.83 208.04 155.03 211.75 151.25 215.74 L 144.40 223.00 L 138.20 216.75 Z M 123.80 203.45 C 117.67 198.21 116.09 194.52 116.76 187.00 C 117.37 180.08 118.90 177.31 124.28 173.41 L 128.14 170.61 L 134.68 178.64 C 140.48 185.77 141.14 187.03 140.59 189.81 C 139.50 195.27 136.10 201.08 132.15 204.26 L 128.34 207.32 L 123.80 203.45 Z M 185.88 202.02 C 181.03 196.76 178.74 192.92 177.59 188.13 C 176.98 185.57 177.52 184.65 182.45 179.83 C 185.50 176.85 188.00 174.04 188.00 173.57 C 188.00 173.11 189.10 172.52 190.44 172.27 C 192.33 171.90 193.87 172.82 197.37 176.40 C 201.43 180.55 201.94 181.61 202.56 187.17 C 203.20 193.00 203.07 193.58 200.13 197.67 C 198.41 200.05 195.55 203.13 193.76 204.52 L 190.50 207.03 L 185.88 202.02 Z M 135.56 176.50 C 131.28 172.10 127.24 168.50 126.58 168.50 C 125.16 168.50 120.72 163.93 119.12 160.82 C 118.50 159.61 118.00 155.41 118.00 151.48 C 118.00 144.44 118.08 144.23 122.50 139.05 C 124.97 136.15 127.00 133.27 127.00 132.64 C 127.00 132.01 127.45 131.50 128.00 131.50 C 128.55 131.50 129.00 132.18 129.00 133.00 C 129.00 133.83 131.93 137.87 135.51 141.97 L 142.01 149.43 L 140.52 153.72 C 139.70 156.07 139.02 158.36 139.01 158.81 C 138.98 160.51 141.11 158.21 142.33 155.22 L 143.61 152.10 L 146.26 156.85 C 148.39 160.65 148.72 162.10 147.96 164.11 C 147.43 165.50 147.00 170.11 147.00 174.37 C 147.00 181.36 146.06 184.50 143.97 184.50 C 143.63 184.50 139.84 180.90 135.56 176.50 Z M 172.80 182.78 C 171.66 181.48 171.11 178.06 170.78 170.18 C 170.39 160.89 170.60 158.80 172.26 155.43 C 174.08 151.75 176.00 150.98 176.00 153.92 C 176.00 155.63 179.85 160.50 181.20 160.50 C 181.90 160.50 181.92 160.09 181.25 159.25 C 180.70 158.56 179.34 155.91 178.23 153.36 L 176.21 148.72 L 181.09 143.36 C 183.78 140.41 186.52 136.54 187.19 134.75 C 188.44 131.41 190.00 130.39 190.00 132.93 C 190.00 133.72 192.25 136.68 195.00 139.50 L 200.00 144.63 L 200.00 152.11 L 200.00 159.59 L 195.35 164.56 C 192.09 168.04 190.16 169.37 188.93 168.98 C 187.79 168.61 186.94 169.05 186.54 170.21 C 186.20 171.19 183.32 174.83 180.14 178.28 C 174.71 184.18 174.27 184.45 172.80 182.78 Z M 197.75 173.26 C 196.24 171.58 195.00 169.91 195.00 169.54 C 195.00 169.17 196.35 167.58 198.00 166.00 L 201.00 163.13 L 201.01 167.56 C 201.02 170.00 201.30 173.01 201.63 174.25 C 202.45 177.30 201.06 176.94 197.75 173.26 Z M 118.00 170.15 C 118.00 167.59 118.34 165.51 118.75 165.53 C 119.58 165.57 123.41 170.52 122.85 170.83 C 122.66 170.93 121.49 171.87 120.25 172.92 L 118.00 174.81 L 118.00 170.15 Z M 147.53 155.55 C 144.74 150.17 145.50 147.69 152.00 140.92 C 155.30 137.48 158.00 134.18 158.00 133.59 C 158.00 131.48 159.57 132.54 161.35 135.85 C 162.35 137.70 165.15 140.87 167.58 142.90 C 172.44 146.97 173.08 149.52 170.47 154.55 C 169.64 156.17 168.78 157.50 168.58 157.50 C 168.37 157.50 166.30 156.42 163.97 155.10 C 159.28 152.43 155.78 152.88 152.44 156.56 C 150.08 159.17 149.32 159.01 147.53 155.55 Z M 138.00 140.94 C 131.87 136.01 129.00 131.55 129.00 126.98 C 129.00 124.63 130.20 122.75 134.28 118.72 C 138.89 114.17 140.08 113.50 143.59 113.50 C 146.87 113.50 148.23 114.14 151.00 117.00 C 155.31 121.45 156.90 121.54 153.55 117.16 C 152.15 115.32 151.00 113.52 151.00 113.16 C 151.00 112.80 157.03 112.58 164.39 112.66 L 177.78 112.81 L 182.89 117.58 C 186.85 121.28 188.00 123.03 188.00 125.36 C 188.00 130.34 186.18 133.71 180.23 139.75 L 174.56 145.50 L 169.17 140.25 C 163.64 134.87 160.06 128.78 160.02 124.69 C 160.01 123.41 159.55 122.66 159.00 123.00 C 158.45 123.34 158.00 124.73 158.00 126.10 C 158.00 130.11 154.58 135.67 148.97 140.75 C 146.08 143.36 143.67 145.47 143.61 145.43 C 143.55 145.39 141.03 143.37 138.00 140.94 Z M 194.78 135.40 C 190.10 129.02 189.03 124.24 191.63 121.31 C 193.81 118.86 200.96 113.50 202.05 113.50 C 202.47 113.50 202.17 115.60 201.40 118.16 C 200.63 120.72 200.00 126.80 200.00 131.66 C 200.00 136.52 199.66 140.49 199.25 140.48 C 198.84 140.48 196.83 138.19 194.78 135.40 Z M 118.00 130.66 C 118.00 126.35 117.33 120.61 116.51 117.91 C 115.69 115.21 115.02 113.00 115.01 113.00 C 115.01 113.00 119.50 112.85 125.00 112.66 C 130.50 112.48 135.00 112.72 135.00 113.21 C 135.00 114.94 126.77 122.04 126.28 120.73 C 125.77 119.33 120.81 116.50 118.88 116.50 C 118.21 116.50 119.76 117.89 122.33 119.59 C 125.22 121.51 127.00 123.43 127.00 124.63 C 127.00 128.96 121.38 138.50 118.83 138.50 C 118.37 138.50 118.00 134.97 118.00 130.66 Z M 185.80 117.44 C 183.88 115.29 182.54 113.29 182.82 113.01 C 183.68 112.16 196.85 112.44 197.39 113.33 C 197.68 113.78 195.97 115.78 193.60 117.75 L 189.29 121.35 L 185.80 117.44 Z M 104.36 101.49 L 98.23 95.53 L 97.98 74.76 C 97.84 63.34 97.79 53.21 97.86 52.25 C 97.98 50.71 99.19 50.50 108.00 50.50 L 118.00 50.50 L 118.00 61.00 L 118.00 71.50 L 131.00 71.50 L 144.00 71.50 L 144.00 61.00 L 144.00 50.50 L 157.50 50.50 L 171.00 50.50 L 171.00 61.00 L 171.00 71.50 L 184.00 71.50 L 197.00 71.50 L 197.00 61.00 L 197.00 50.50 L 207.50 50.50 L 218.00 50.50 L 218.00 72.79 L 218.00 95.09 L 211.96 101.29 L 205.93 107.50 L 195.36 107.50 C 187.29 107.50 184.91 107.20 185.30 106.25 C 185.59 105.56 186.54 103.31 187.42 101.25 C 189.61 96.13 187.85 96.39 182.24 102.00 L 177.74 106.50 L 158.61 106.50 L 139.49 106.50 L 134.00 102.00 C 130.98 99.53 128.17 97.50 127.74 97.50 C 127.31 97.50 128.11 99.75 129.50 102.50 L 132.03 107.50 L 121.27 107.48 L 110.50 107.46 L 104.36 101.49 Z"/>
</svg>
