<svg xmlns="http://www.w3.org/2000/svg" viewBox="0 0 320 320" width="320" height="320">
  <path fill="#e0a020" fill-rule="evenodd" d="M 142.09 274.64 C 141.67 273.96 142.72 272.35 144.65 270.74 C 146.46 269.23 150.59 265.64 153.84 262.75 C 157.09 259.86 160.03 257.52 160.38 257.55 C 161.59 257.64 177.93 273.41 177.37 273.96 C 177.07 274.27 169.16 274.81 159.81 275.16 C 147.37 275.63 142.61 275.49 142.09 274.64 Z M 103.79 273.75 C 104.01 273.34 105.92 270.15 108.04 266.66 C 111.64 260.73 112.48 260.03 120.93 255.78 C 136.23 248.10 151.91 236.02 158.14 227.13 L 160.15 224.26 L 163.75 229.16 C 170.07 237.77 185.52 249.25 200.22 256.25 C 206.84 259.41 207.82 260.28 212.02 266.85 L 216.60 274.00 L 204.38 274.28 L 192.17 274.56 L 186.59 270.89 C 180.67 266.99 166.61 255.41 162.62 251.14 L 160.23 248.59 L 151.62 256.58 C 146.88 260.98 139.78 266.81 135.84 269.54 L 128.67 274.50 L 116.03 274.50 C 109.07 274.50 103.56 274.16 103.79 273.75 Z M 119.63 249.25 C 120.87 247.46 124.20 242.85 127.01 239.00 C 139.21 222.31 145.35 208.24 146.23 194.96 C 147.20 180.21 143.42 170.19 131.05 154.69 C 121.80 143.11 118.93 138.23 117.01 130.88 C 112.22 112.50 120.31 88.96 139.48 65.50 C 146.67 56.70 158.67 44.50 160.15 44.50 C 161.79 44.50 179.50 63.67 185.67 72.13 C 196.06 86.38 201.87 99.47 203.64 112.65 C 205.67 127.70 201.63 139.41 189.09 154.88 C 185.02 159.90 180.34 166.70 178.68 170.00 C 169.48 188.30 173.06 211.76 188.16 232.19 C 198.98 246.81 202.47 251.87 202.04 252.30 C 201.36 252.98 188.64 245.26 182.67 240.54 C 176.42 235.60 168.87 225.78 163.90 216.13 L 160.17 208.89 L 156.86 215.44 C 152.19 224.67 144.49 234.51 137.50 240.17 C 131.42 245.09 119.86 252.50 118.25 252.50 C 117.76 252.50 118.38 251.04 119.63 249.25 Z M 204.88 238.41 C 207.17 230.51 207.80 224.33 206.76 219.79 C 205.70 215.18 205.76 214.95 208.97 211.40 C 213.16 206.76 217.16 199.95 219.63 193.24 L 221.56 188.00 L 216.79 193.50 C 214.17 196.53 209.99 200.93 207.51 203.29 C 202.66 207.89 190.40 216.50 188.69 216.50 C 188.11 216.50 186.77 214.14 185.70 211.25 C 181.96 201.15 181.34 202.62 193.22 193.26 C 205.50 183.59 210.88 178.08 216.46 169.44 C 222.55 160.01 224.81 152.07 224.19 142.19 C 223.91 137.69 223.39 132.65 223.03 131.00 C 222.39 128.04 222.44 128.06 226.59 132.50 C 235.55 142.07 241.37 161.26 240.07 177.00 C 239.28 186.63 236.48 198.03 232.96 205.99 C 227.39 218.59 217.25 231.83 208.62 237.76 C 204.22 240.79 204.19 240.79 204.88 238.41 Z M 108.81 235.65 C 100.52 229.10 89.68 213.59 85.62 202.50 C 81.27 190.56 80.12 184.23 80.09 172.00 C 80.05 154.89 84.28 142.39 93.45 132.50 C 97.57 128.05 97.62 128.04 97.02 131.00 C 96.68 132.65 96.15 137.48 95.83 141.74 C 95.34 148.14 95.64 150.71 97.52 156.57 C 101.81 169.89 108.92 178.86 126.02 192.51 L 137.29 201.51 L 136.37 205.60 C 134.68 213.09 132.70 216.79 130.76 216.06 C 123.60 213.38 111.53 203.55 103.07 193.50 C 100.08 189.96 99.43 189.53 100.01 191.50 C 101.62 197.00 106.21 205.07 110.32 209.64 L 114.65 214.46 L 113.53 219.87 C 112.62 224.24 112.70 226.56 113.95 231.95 C 114.80 235.62 115.50 238.82 115.50 239.06 C 115.50 240.29 113.19 239.12 108.81 235.65 Z M 163.54 133.91 C 165.90 128.66 166.50 125.91 166.50 120.41 L 166.50 113.50 L 171.87 113.50 C 176.96 113.50 177.65 113.22 183.44 108.79 C 183.68 108.61 182.33 107.14 180.44 105.52 C 177.60 103.10 176.08 102.57 171.75 102.54 L 166.50 102.50 L 166.50 95.87 C 166.50 90.30 166.01 88.38 163.43 83.87 C 161.74 80.92 160.19 78.50 160.00 78.50 C 159.81 78.50 158.26 80.92 156.57 83.87 C 153.99 88.38 153.50 90.30 153.50 95.87 L 153.50 102.50 L 148.25 102.53 C 143.81 102.55 142.48 103.03 139.62 105.63 L 136.23 108.71 L 139.12 111.07 C 141.37 112.91 143.23 113.44 147.64 113.46 L 153.29 113.50 L 153.71 121.25 C 154.02 127.11 154.81 130.40 156.93 134.75 C 158.47 137.91 159.93 140.50 160.16 140.50 C 160.39 140.50 161.91 137.53 163.54 133.91 Z M 156.69 112.58 L 153.40 108.49 L 156.67 104.59 L 159.95 100.69 L 163.18 104.34 C 164.96 106.35 166.43 108.22 166.44 108.50 C 166.46 108.78 165.01 110.73 163.22 112.84 L 159.98 116.68 L 156.69 112.58 Z"/>
</svg>
