<svg xmlns="http://www.w3.org/2000/svg" viewBox="0 0 320 320" width="320" height="320">
  <path fill="#e0a020" fill-rule="evenodd" d="M 105.50 278.21 C 105.50 270.17 113.27 251.85 117.08 250.89 C 124.83 248.94 158.15 243.85 158.85 244.50 C 159.31 244.94 158.75 249.03 157.60 253.59 C 156.21 259.07 155.50 265.04 155.50 271.19 L 155.50 280.50 L 130.50 280.50 L 105.50 280.50 L 105.50 278.21 Z M 163.11 278.92 C 161.77 275.42 162.57 261.72 164.53 254.65 C 166.93 245.96 170.14 239.40 180.49 221.99 C 189.73 206.44 193.92 197.19 196.69 186.21 C 201.90 165.61 195.45 138.87 182.93 129.18 L 177.60 125.06 L 180.30 121.55 C 181.79 119.62 184.63 114.88 186.61 111.02 L 190.23 104.00 L 196.61 104.23 C 209.15 104.69 229.43 110.82 242.99 118.26 C 249.53 121.85 249.90 123.87 244.30 125.36 C 235.51 127.69 230.85 128.45 225.19 128.48 L 219.38 128.50 L 222.19 133.69 C 223.73 136.54 228.40 142.50 232.55 146.94 C 248.54 164.03 257.54 175.86 255.84 177.56 C 254.51 178.89 242.03 177.07 235.53 174.60 L 230.50 172.69 L 230.50 175.20 C 230.50 180.59 233.97 190.67 241.08 205.91 C 245.16 214.66 248.50 222.38 248.50 223.07 C 248.50 226.53 240.56 224.13 230.21 217.54 L 224.00 213.59 L 223.17 217.30 C 221.88 223.11 222.94 231.75 226.99 248.34 C 229.48 258.56 230.40 264.00 229.73 264.67 C 228.25 266.15 224.15 263.68 215.50 256.12 C 206.81 248.53 206.46 248.63 204.48 259.10 C 203.36 265.02 203.61 271.92 205.16 278.25 L 205.72 280.50 L 184.72 280.50 C 166.49 280.50 163.63 280.29 163.11 278.92 Z M 118.01 243.52 C 116.64 241.30 126.42 227.79 136.16 218.44 L 143.00 211.88 L 159.50 209.14 C 168.57 207.63 177.01 206.18 178.25 205.93 C 181.82 205.19 181.07 207.77 174.64 218.35 C 171.42 223.66 167.84 229.86 166.68 232.13 C 164.39 236.63 164.35 236.65 145.33 239.51 C 141.65 240.06 134.29 241.41 128.97 242.51 C 117.60 244.85 118.77 244.74 118.01 243.52 Z M 101.72 211.39 C 96.18 210.36 90.24 206.99 87.54 203.34 C 85.04 199.96 85.57 198.50 89.31 198.50 C 94.49 198.50 98.66 195.36 101.99 189.00 C 104.26 184.64 106.50 182.04 110.18 179.50 C 120.44 172.41 126.54 167.37 125.97 166.45 C 125.09 165.02 117.87 165.31 114.22 166.92 C 110.08 168.74 98.25 180.04 96.13 184.20 C 95.23 185.96 94.50 188.32 94.50 189.45 C 94.50 191.21 93.87 191.50 90.07 191.50 C 83.58 191.50 80.84 192.91 78.52 197.46 C 77.39 199.68 76.06 201.50 75.57 201.50 C 73.73 201.50 65.83 191.55 64.71 187.82 C 63.36 183.31 63.31 166.13 64.64 162.64 C 65.42 160.57 66.02 160.32 69.00 160.81 C 72.19 161.32 72.81 160.96 77.01 156.18 C 79.51 153.33 83.57 148.01 86.03 144.34 C 90.47 137.74 90.50 137.63 90.50 129.02 C 90.50 120.72 90.63 120.23 93.41 117.67 C 103.30 108.60 105.46 106.15 106.56 102.76 C 107.23 100.69 108.66 97.74 109.74 96.21 C 111.27 94.02 111.99 93.66 113.07 94.56 C 114.16 95.46 116.50 93.78 124.47 86.38 C 129.99 81.26 134.50 76.97 134.50 76.85 C 134.50 76.34 128.60 78.40 125.60 79.95 C 123.79 80.88 122.19 81.50 122.05 81.32 C 121.90 81.15 123.72 76.95 126.10 72.00 C 128.47 67.05 131.59 59.51 133.04 55.25 C 136.63 44.65 139.23 44.87 141.51 55.98 C 143.50 65.66 142.28 72.36 136.94 81.15 C 134.42 85.30 132.51 88.84 132.69 89.03 C 132.88 89.21 138.87 85.00 146.01 79.68 C 155.77 72.41 159.00 69.45 159.00 67.81 C 159.00 66.60 162.04 61.65 165.75 56.81 C 169.46 51.96 173.85 46.09 175.51 43.75 C 177.16 41.41 179.13 39.50 179.88 39.50 C 184.46 39.50 180.90 62.96 174.38 75.74 C 170.39 83.56 165.03 91.16 158.90 97.71 C 155.44 101.40 152.12 105.33 151.52 106.46 C 150.53 108.31 150.72 108.50 153.56 108.50 C 155.28 108.50 159.04 107.82 161.91 106.98 C 169.85 104.67 180.35 103.62 181.51 105.01 C 182.66 106.39 177.40 115.58 171.32 122.81 C 169.10 125.45 167.44 127.74 167.64 127.88 C 167.84 128.03 170.03 129.31 172.50 130.74 C 174.97 132.16 178.50 134.89 180.33 136.80 L 183.67 140.27 L 180.22 142.90 C 177.31 145.12 173.95 146.55 165.77 149.05 C 164.86 149.33 165.03 150.57 166.44 153.87 C 167.49 156.31 168.66 160.38 169.04 162.90 C 169.60 166.68 169.43 167.59 168.04 168.12 C 166.54 168.70 159.44 167.75 151.09 165.86 L 148.19 165.21 L 148.82 169.81 C 149.29 173.26 149.06 174.79 147.90 175.95 C 147.05 176.80 146.05 177.50 145.68 177.51 C 141.90 177.55 131.45 179.99 128.41 181.55 C 122.99 184.31 107.82 198.07 107.13 200.86 C 106.81 202.13 106.98 204.69 107.52 206.56 C 108.84 211.17 107.33 212.43 101.72 211.39 Z M 148.28 204.94 C 147.89 204.56 149.00 202.18 150.74 199.65 C 155.49 192.75 158.45 184.75 158.48 178.75 L 158.50 173.50 L 165.00 173.50 C 170.30 173.50 171.89 173.11 173.63 171.37 C 175.50 169.50 175.69 168.47 175.19 163.11 C 174.88 159.73 174.36 156.29 174.04 155.46 C 173.62 154.36 175.27 153.06 180.13 150.66 C 187.67 146.94 187.64 146.93 189.95 155.00 C 193.32 166.70 192.76 178.05 188.16 191.49 L 185.93 198.00 L 180.96 199.12 C 178.23 199.74 170.82 201.27 164.50 202.51 C 158.18 203.76 152.09 204.97 150.99 205.21 C 149.88 205.45 148.66 205.33 148.28 204.94 Z M 80.10 176.80 C 82.44 174.65 83.42 170.50 81.58 170.50 C 78.13 170.50 74.50 175.11 74.50 179.49 C 74.50 181.76 74.87 181.58 80.10 176.80 Z M 114.42 141.54 C 121.20 139.52 122.99 137.14 124.96 127.50 C 125.81 123.38 126.50 119.87 126.50 119.72 C 126.50 119.06 114.77 126.93 112.32 129.22 C 109.87 131.52 106.81 137.44 105.02 143.34 C 104.35 145.53 104.45 145.59 106.66 144.41 C 107.94 143.72 111.44 142.43 114.42 141.54 Z M 169.50 98.14 C 169.50 97.82 171.50 94.48 173.94 90.70 L 178.37 83.84 L 186.10 81.60 C 194.20 79.25 209.17 72.10 218.50 66.13 C 224.86 62.06 226.39 62.60 224.68 68.29 C 222.80 74.56 216.36 83.53 208.56 90.75 L 201.26 97.50 L 186.96 97.50 C 179.10 97.50 171.95 97.77 171.08 98.11 C 170.21 98.44 169.50 98.45 169.50 98.14 Z"/>
</svg>
