<svg xmlns="http://www.w3.org/2000/svg" viewBox="0 0 320 320" width="320" height="320">
  <path fill="#e0a020" fill-rule="evenodd" d="M 155.93 285.85 C 150.04 282.52 148.15 280.72 145.89 276.29 C 142.02 268.69 144.00 267.62 152.00 273.00 C 155.26 275.19 158.40 276.50 160.41 276.50 C 162.30 276.50 166.00 275.06 169.43 273.00 C 177.76 267.98 178.58 268.43 175.09 276.12 C 173.22 280.22 169.24 283.88 163.43 286.81 C 160.53 288.28 160.12 288.23 155.93 285.85 Z M 134.70 273.90 C 133.17 273.07 131.48 271.26 130.95 269.88 C 129.75 266.70 129.71 258.80 130.90 258.06 C 131.40 257.75 133.37 259.07 135.28 260.98 C 138.20 263.90 138.82 265.31 139.21 269.97 C 139.71 275.99 139.27 276.38 134.70 273.90 Z M 181.63 272.25 C 182.06 270.46 182.41 267.88 182.40 266.50 C 182.38 263.91 189.42 256.59 190.70 257.87 C 191.06 258.23 191.39 260.80 191.43 263.59 C 191.49 268.20 191.17 268.96 187.76 272.08 C 182.83 276.60 180.56 276.67 181.63 272.25 Z M 147.66 262.86 C 141.76 258.66 136.44 254.27 135.84 253.11 C 135.25 251.95 133.40 249.56 131.74 247.80 C 128.84 244.75 128.77 244.47 130.10 241.30 C 131.95 236.88 131.74 227.15 129.65 221.00 C 128.71 218.25 126.41 213.90 124.52 211.33 L 121.10 206.66 L 114.30 209.06 C 110.56 210.38 106.47 211.47 105.20 211.48 C 103.10 211.50 102.96 211.19 103.58 207.75 C 103.95 205.69 104.86 202.20 105.61 200.00 C 107.44 194.61 107.55 194.84 102.75 194.08 C 97.80 193.29 90.00 189.01 90.00 187.10 C 90.00 186.37 92.93 183.89 96.50 181.57 C 100.08 179.26 103.00 176.70 103.00 175.89 C 103.00 175.08 101.93 173.42 100.62 172.20 C 99.32 170.99 96.18 168.06 93.65 165.70 C 87.83 160.25 82.11 148.94 81.32 141.34 C 80.61 134.43 81.82 133.43 86.81 136.82 C 88.84 138.20 93.65 140.97 97.50 142.98 C 101.35 144.99 106.08 147.87 108.00 149.38 C 114.36 154.37 114.37 154.37 113.63 148.74 C 112.97 143.78 113.02 143.63 116.13 142.08 C 120.66 139.83 126.68 140.14 132.71 142.95 L 137.92 145.37 L 137.32 142.34 C 136.59 138.69 137.97 137.54 143.12 137.52 C 146.20 137.50 147.10 138.06 149.23 141.27 C 152.74 146.58 156.01 153.16 157.93 158.81 C 158.83 161.47 159.94 163.73 160.39 163.82 C 160.84 163.92 162.29 161.14 163.60 157.63 C 164.92 154.13 167.89 147.94 170.20 143.88 C 174.01 137.19 174.69 136.50 177.51 136.50 C 182.27 136.50 184.44 138.56 183.68 142.36 L 183.04 145.53 L 186.18 143.90 C 190.43 141.71 199.89 138.50 202.12 138.50 C 203.11 138.50 204.99 139.66 206.31 141.07 C 208.35 143.27 208.62 144.38 208.21 148.67 L 207.73 153.70 L 212.54 150.02 C 215.19 147.99 220.77 144.60 224.93 142.47 C 229.09 140.35 233.85 137.69 235.50 136.56 C 237.15 135.43 239.06 134.51 239.75 134.51 C 243.16 134.49 239.41 150.07 233.97 158.55 C 232.19 161.33 228.09 165.89 224.86 168.70 C 221.64 171.50 219.00 174.61 219.00 175.60 C 219.00 177.50 223.29 181.14 228.81 183.94 C 230.64 184.86 231.95 186.15 231.74 186.81 C 231.11 188.71 225.05 192.42 220.59 193.62 C 218.34 194.23 215.95 194.88 215.28 195.07 C 214.34 195.34 214.37 196.30 215.43 199.32 C 216.19 201.46 216.97 204.97 217.16 207.11 C 217.45 210.48 217.21 211.04 215.31 211.31 C 214.10 211.48 210.33 210.50 206.94 209.13 L 200.77 206.64 L 198.33 209.08 C 196.98 210.43 194.47 214.55 192.74 218.25 C 189.77 224.59 189.60 225.60 189.73 235.87 L 189.86 246.77 L 185.90 252.13 C 183.73 255.08 180.24 258.36 178.16 259.42 C 176.07 260.48 173.72 262.14 172.93 263.10 C 170.70 265.82 162.84 270.50 160.51 270.50 C 159.35 270.50 153.57 267.06 147.66 262.86 Z M 148.98 238.97 C 147.08 235.89 144.27 233.50 142.57 233.50 C 141.43 233.50 142.03 240.45 143.25 241.44 C 143.94 241.99 145.85 243.55 147.50 244.90 L 150.50 247.35 L 150.82 244.91 C 150.99 243.56 150.17 240.89 148.98 238.97 Z M 178.81 237.13 C 178.98 235.13 178.74 233.50 178.28 233.50 C 175.09 233.50 170.00 240.89 170.00 245.53 C 170.00 247.64 170.24 247.57 174.25 244.26 C 177.61 241.50 178.57 240.00 178.81 237.13 Z M 191.99 240.81 C 191.98 239.26 191.71 237.03 191.39 235.84 C 191.01 234.41 191.52 232.98 192.91 231.59 C 197.71 226.79 199.53 230.53 196.08 238.13 C 193.68 243.42 192.00 244.52 191.99 240.81 Z M 124.16 236.95 C 122.88 234.14 122.63 230.20 123.67 229.16 C 124.80 228.04 128.00 231.67 128.00 234.07 C 128.00 236.84 127.04 239.50 126.05 239.50 C 125.65 239.50 124.80 238.35 124.16 236.95 Z M 179.91 200.88 C 181.60 195.31 183.56 190.28 184.26 189.70 C 184.95 189.12 188.14 187.67 191.34 186.47 C 198.02 183.97 200.61 180.69 201.52 173.53 C 201.84 171.04 202.99 167.03 204.09 164.63 C 205.19 162.23 205.92 160.09 205.71 159.88 C 205.21 159.38 191.36 168.98 187.66 172.39 C 186.10 173.82 183.91 176.80 182.79 179.00 C 181.68 181.20 180.19 183.68 179.48 184.50 C 177.99 186.23 174.97 204.14 175.07 210.62 C 175.15 215.92 175.58 215.06 179.91 200.88 Z M 144.68 195.25 C 143.84 190.37 142.28 185.46 140.88 183.23 C 139.57 181.15 137.58 178.00 136.46 176.23 C 134.62 173.31 117.59 159.59 115.73 159.53 C 115.31 159.51 115.87 161.28 116.98 163.46 C 118.09 165.64 119.00 168.09 119.00 168.91 C 119.00 173.38 121.42 180.65 123.65 182.88 C 125.03 184.26 128.69 186.23 131.78 187.26 L 137.41 189.14 L 141.45 201.45 L 145.50 213.77 L 145.80 208.63 C 145.97 205.80 145.46 199.78 144.68 195.25 Z M 101.82 135.97 C 99.24 134.63 96.89 133.13 96.58 132.63 C 96.28 132.14 92.91 122.69 89.09 111.63 C 82.44 92.34 81.78 88.31 85.81 91.74 C 86.74 92.52 93.03 97.97 99.80 103.83 C 106.56 109.70 112.52 114.50 113.05 114.50 C 113.61 114.50 114.00 108.05 114.01 98.75 C 114.01 81.86 114.85 69.50 115.99 69.50 C 116.38 69.50 122.28 77.81 129.10 87.98 C 135.92 98.14 141.78 106.46 142.13 106.48 C 142.48 106.49 146.50 95.25 151.06 81.50 C 155.62 67.75 159.87 56.50 160.50 56.50 C 161.13 56.50 165.40 67.77 169.99 81.54 C 177.17 103.06 178.54 106.39 179.75 105.18 C 180.52 104.41 186.18 96.21 192.33 86.97 C 198.48 77.73 204.07 69.98 204.75 69.75 C 205.72 69.43 206.00 74.33 206.00 91.92 C 206.00 108.12 206.32 114.50 207.14 114.50 C 207.76 114.50 212.82 110.55 218.39 105.71 C 235.80 90.59 238.00 89.01 238.00 91.63 C 238.00 92.24 235.04 101.81 231.43 112.88 L 224.86 133.00 L 219.88 135.78 L 214.90 138.56 L 207.82 136.00 C 203.93 134.60 198.22 133.33 195.12 133.19 C 192.03 133.04 188.49 132.36 187.25 131.68 C 186.02 130.99 182.56 129.98 179.57 129.43 L 174.13 128.42 L 167.45 133.00 C 159.95 138.13 161.77 138.28 151.76 131.70 C 146.53 128.27 139.29 128.89 135.68 133.08 C 133.33 135.81 133.01 135.90 129.78 134.74 C 124.85 132.95 121.99 133.19 114.19 136.00 C 110.38 137.38 107.09 138.48 106.88 138.45 C 106.67 138.43 104.39 137.31 101.82 135.97 Z M 70.89 86.00 C 65.46 83.05 64.86 75.33 69.75 71.48 C 78.72 64.42 89.17 76.49 81.08 84.58 C 77.88 87.77 74.91 88.19 70.89 86.00 Z M 239.82 84.63 C 233.43 78.92 237.03 69.50 245.60 69.50 C 253.67 69.50 257.17 79.65 250.92 84.91 C 246.94 88.26 243.80 88.18 239.82 84.63 Z M 106.78 62.96 C 101.13 59.85 100.27 53.08 104.92 48.42 C 108.19 45.16 110.73 44.79 114.97 46.98 C 118.41 48.76 120.50 54.07 119.14 57.61 C 117.09 62.98 111.33 65.48 106.78 62.96 Z M 206.48 63.13 C 203.55 61.83 201.00 58.00 201.00 54.90 C 201.00 52.14 203.82 47.90 206.47 46.69 C 210.39 44.91 212.52 45.22 215.92 48.09 C 218.47 50.23 219.00 51.41 219.00 54.91 C 219.00 61.87 212.80 65.93 206.48 63.13 Z M 154.92 47.72 C 152.43 45.49 151.80 44.14 151.80 41.00 C 151.80 37.86 152.43 36.51 154.92 34.28 C 158.32 31.24 160.53 30.87 164.53 32.69 C 167.18 33.90 170.00 38.14 170.00 40.90 C 170.00 45.59 164.92 50.50 160.07 50.50 C 158.95 50.50 156.63 49.25 154.92 47.72 Z"/>
</svg>
